<svg width="361" height="331" viewBox="0 0 361 331" fill="none" xmlns="http://www.w3.org/2000/svg">
<path d="M179.673 329.875C179.563 329.874 179.456 329.844 179.362 329.788L1.73524 227.677C1.64149 227.623 1.56354 227.545 1.50913 227.451C1.45472 227.358 1.42575 227.252 1.42509 227.143V220.382C1.42575 220.274 1.45472 220.168 1.50913 220.074C1.56354 219.981 1.64149 219.903 1.73524 219.849C1.82954 219.794 1.9365 219.766 2.04539 219.766C2.15427 219.766 2.26124 219.794 2.35553 219.849L179.983 321.973C180.076 322.027 180.154 322.104 180.209 322.198C180.263 322.292 180.292 322.398 180.293 322.506V329.267C180.29 329.43 180.223 329.584 180.107 329.698C179.991 329.812 179.835 329.875 179.673 329.875ZM2.65327 226.771L179.052 328.188V322.853L2.64087 221.449V226.784L2.65327 226.771Z" fill="#2E2E2E"/>
<path d="M179.673 322.818C179.563 322.817 179.456 322.787 179.362 322.732L1.71042 220.918C1.61496 220.864 1.53556 220.785 1.48031 220.69C1.42507 220.596 1.39597 220.488 1.39597 220.378C1.39597 220.268 1.42507 220.161 1.48031 220.066C1.53556 219.971 1.61496 219.893 1.71042 219.839L50.1801 192.124C50.3233 192.042 50.4932 192.02 50.6526 192.063C50.8119 192.106 50.9477 192.211 51.0299 192.354C51.1122 192.497 51.1342 192.667 51.0912 192.826C51.0481 192.985 50.9435 193.121 50.8004 193.203L3.26115 220.372L179.66 321.479L358.069 220.434L302.106 188.365C302.035 188.324 301.973 188.27 301.923 188.205C301.873 188.141 301.837 188.067 301.815 187.988C301.794 187.909 301.788 187.827 301.799 187.746C301.809 187.664 301.836 187.586 301.876 187.515C301.917 187.445 301.971 187.382 302.036 187.333C302.101 187.283 302.175 187.246 302.254 187.225C302.333 187.203 302.415 187.198 302.496 187.208C302.577 187.219 302.655 187.245 302.726 187.286L359.632 219.901C359.727 219.955 359.807 220.033 359.862 220.128C359.917 220.223 359.946 220.33 359.946 220.44C359.946 220.55 359.917 220.658 359.862 220.752C359.807 220.847 359.727 220.926 359.632 220.98L179.995 322.707C179.9 322.774 179.788 322.813 179.673 322.818Z" fill="#2E2E2E"/>
<path d="M69.0122 238.767C68.9083 238.767 68.8059 238.742 68.7145 238.692L24.5496 213.968C24.4542 213.913 24.3748 213.835 24.3195 213.74C24.2643 213.645 24.2352 213.538 24.2352 213.428C24.2352 213.318 24.2643 213.21 24.3195 213.116C24.3748 213.021 24.4542 212.942 24.5496 212.888L50.4655 198.001C50.6086 197.919 50.7785 197.897 50.9379 197.94C51.0973 197.983 51.233 198.088 51.3153 198.231C51.3975 198.374 51.4196 198.544 51.3765 198.703C51.3335 198.863 51.2289 198.998 51.0858 199.081L26.1004 213.422L69.0122 237.452L180.206 174.654C180.299 174.602 180.403 174.574 180.51 174.574C180.616 174.574 180.721 174.602 180.814 174.654L284.08 233.209L326.967 209.191L302.156 194.553C302.084 194.512 302.021 194.457 301.971 194.392C301.921 194.327 301.884 194.252 301.863 194.172C301.842 194.093 301.837 194.01 301.848 193.928C301.86 193.847 301.887 193.768 301.929 193.697C301.971 193.626 302.027 193.565 302.093 193.516C302.159 193.466 302.234 193.431 302.314 193.411C302.394 193.392 302.477 193.388 302.559 193.401C302.64 193.414 302.718 193.442 302.788 193.486L328.555 208.683C328.651 208.737 328.73 208.815 328.785 208.91C328.841 209.005 328.87 209.113 328.87 209.222C328.87 209.332 328.841 209.44 328.785 209.535C328.73 209.629 328.651 209.708 328.555 209.762L284.415 234.487C284.322 234.539 284.218 234.566 284.111 234.566C284.005 234.566 283.9 234.539 283.807 234.487L180.541 175.932L69.2852 238.692C69.2011 238.738 69.1077 238.763 69.0122 238.767Z" fill="#2E2E2E"/>
<path d="M179.673 329.877C179.508 329.877 179.35 329.812 179.234 329.696C179.118 329.579 179.052 329.422 179.052 329.257V322.496C179.051 322.386 179.079 322.277 179.133 322.181C179.188 322.085 179.267 322.005 179.362 321.95L358.726 219.95C358.82 219.896 358.927 219.867 359.036 219.867C359.144 219.867 359.251 219.895 359.345 219.949C359.439 220.003 359.518 220.081 359.572 220.175C359.627 220.269 359.656 220.375 359.657 220.484V227.245C359.658 227.355 359.63 227.464 359.576 227.56C359.521 227.656 359.442 227.736 359.347 227.791L179.983 329.803C179.888 329.854 179.781 329.88 179.673 329.877ZM180.28 322.856V328.203L358.404 226.898V221.551L180.28 322.856Z" fill="#2E2E2E"/>
<path d="M283.634 191.639C283.524 191.638 283.417 191.608 283.323 191.553L179.958 132.005C179.864 131.951 179.786 131.873 179.732 131.78C179.677 131.686 179.648 131.58 179.648 131.472V121.969C179.646 121.859 179.674 121.751 179.728 121.656C179.781 121.56 179.86 121.481 179.954 121.425C180.049 121.37 180.156 121.34 180.266 121.34C180.375 121.339 180.483 121.368 180.578 121.423L283.907 179.953C284 180.007 284.078 180.085 284.133 180.179C284.187 180.272 284.216 180.378 284.217 180.487V191.007C284.22 191.167 284.161 191.323 284.053 191.441C283.944 191.559 283.794 191.63 283.634 191.639ZM180.913 131.137L283.038 189.952V180.871L180.913 123.036V131.137Z" fill="#2E2E2E"/>
<path d="M283.634 191.639C283.469 191.639 283.311 191.574 283.195 191.457C283.079 191.341 283.013 191.183 283.013 191.019V180.499C283.012 180.388 283.04 180.279 283.094 180.183C283.149 180.088 283.228 180.008 283.324 179.953L335.341 150.353C335.435 150.298 335.541 150.27 335.65 150.27C335.759 150.269 335.865 150.298 335.959 150.352C336.054 150.406 336.132 150.483 336.187 150.577C336.241 150.671 336.27 150.778 336.271 150.886V161.406C336.273 161.516 336.245 161.625 336.19 161.721C336.136 161.817 336.057 161.897 335.961 161.952L283.969 191.552C283.867 191.612 283.751 191.642 283.634 191.639ZM284.217 180.858V189.952L334.993 161.059V151.965L284.217 180.858Z" fill="#2E2E2E"/>
<path d="M68.8758 195.87C68.7113 195.87 68.5535 195.804 68.4372 195.688C68.3208 195.572 68.2555 195.414 68.2555 195.249V184.729C68.2539 184.619 68.2819 184.51 68.3364 184.414C68.3909 184.318 68.47 184.239 68.5656 184.184L180.02 121.423C180.115 121.368 180.223 121.339 180.332 121.34C180.442 121.34 180.549 121.37 180.644 121.425C180.739 121.481 180.817 121.56 180.871 121.656C180.924 121.751 180.952 121.859 180.95 121.969V131.484C180.95 131.592 180.921 131.698 180.866 131.792C180.812 131.886 180.734 131.963 180.64 132.017L69.1859 195.783C69.092 195.839 68.985 195.869 68.8758 195.87ZM69.4588 185.089V194.183L179.673 131.137V123.036L69.4588 185.089Z" fill="#2E2E2E"/>
<path d="M68.875 195.869C68.7658 195.868 68.6588 195.838 68.5649 195.782L16.9074 166.194C16.8137 166.14 16.7357 166.062 16.6813 165.969C16.6269 165.875 16.5979 165.769 16.5973 165.661V155.141C16.5958 155.031 16.6233 154.923 16.6771 154.828C16.7309 154.732 16.8091 154.652 16.9036 154.597C16.9982 154.542 17.1058 154.512 17.2154 154.512C17.325 154.511 17.4328 154.54 17.5277 154.595L69.1976 184.195C69.2913 184.249 69.3693 184.327 69.4237 184.42C69.4781 184.514 69.5071 184.62 69.5077 184.728V195.248C69.5077 195.331 69.4913 195.413 69.4593 195.489C69.4274 195.565 69.3806 195.634 69.3217 195.691C69.2627 195.749 69.1929 195.795 69.1162 195.825C69.0395 195.856 68.9575 195.87 68.875 195.869ZM17.8255 165.289L68.2547 194.169V185.076L17.7882 156.208L17.8255 165.289Z" fill="#2E2E2E"/>
<path d="M68.8384 185.351C68.7292 185.35 68.6222 185.32 68.5282 185.264L16.9074 155.677C16.812 155.622 16.7326 155.544 16.6773 155.449C16.6221 155.354 16.593 155.247 16.593 155.137C16.593 155.027 16.6221 154.919 16.6773 154.825C16.7326 154.73 16.812 154.651 16.9074 154.597L87.2115 114.552C87.3537 114.481 87.5175 114.468 87.669 114.515C87.8206 114.562 87.9484 114.665 88.0263 114.803C88.1041 114.942 88.126 115.104 88.0876 115.258C88.0491 115.412 87.9531 115.546 87.8194 115.631L18.3465 155.131L68.7764 184.011L179.92 121.424C180.013 121.372 180.118 121.345 180.224 121.345C180.331 121.345 180.436 121.372 180.528 121.424L283.497 179.731L334.262 150.851L224.52 87.9785C224.449 87.9378 224.387 87.8835 224.337 87.8187C224.287 87.754 224.25 87.68 224.229 87.6011C224.207 87.5222 224.202 87.4399 224.212 87.3588C224.223 87.2778 224.249 87.1996 224.29 87.1287C224.331 87.0578 224.385 86.9957 224.45 86.9458C224.515 86.8959 224.589 86.8592 224.667 86.8379C224.746 86.8166 224.829 86.8111 224.91 86.8216C224.991 86.8321 225.069 86.8585 225.14 86.8992L335.961 150.367C336.057 150.421 336.136 150.499 336.191 150.594C336.247 150.689 336.276 150.797 336.276 150.907C336.276 151.016 336.247 151.124 336.191 151.219C336.136 151.314 336.057 151.392 335.961 151.446L283.944 181.046C283.851 181.1 283.746 181.128 283.64 181.128C283.533 181.128 283.428 181.1 283.336 181.046L180.367 122.739L69.1485 185.277C69.0534 185.328 68.9465 185.354 68.8384 185.351Z" fill="#2E2E2E"/>
<path d="M94.9028 223.93C94.7947 223.932 94.6878 223.907 94.5926 223.855L50.2174 198.808C50.1236 198.754 50.0457 198.676 49.9912 198.583C49.9368 198.489 49.9079 198.383 49.9072 198.275V184.628C49.9072 184.464 49.9726 184.306 50.0889 184.19C50.2052 184.073 50.363 184.008 50.5275 184.008C50.692 184.008 50.8498 184.073 50.9661 184.19C51.0824 184.306 51.1478 184.464 51.1478 184.628V197.878L94.2949 222.218L94.084 180.534C94.0823 180.453 94.0972 180.371 94.1278 180.295C94.1583 180.219 94.204 180.15 94.2619 180.092C94.3199 180.034 94.3889 179.989 94.4649 179.958C94.5409 179.927 94.6224 179.913 94.7043 179.914C94.8688 179.914 95.0266 179.98 95.1429 180.096C95.2592 180.212 95.3246 180.37 95.3246 180.534L95.5355 223.285C95.5389 223.369 95.5249 223.454 95.4945 223.533C95.4641 223.612 95.4178 223.683 95.3585 223.744C95.2993 223.804 95.2282 223.852 95.1499 223.884C95.0715 223.916 94.9874 223.931 94.9028 223.93Z" fill="#2E2E2E"/>
<path d="M94.9033 223.931C94.7388 223.931 94.581 223.865 94.4647 223.749C94.3483 223.633 94.283 223.475 94.283 223.31L94.0721 180.56C94.0704 180.478 94.0853 180.397 94.1159 180.321C94.1464 180.245 94.1921 180.176 94.25 180.118C94.3079 180.06 94.377 180.014 94.453 179.984C94.529 179.953 94.6105 179.938 94.6924 179.94C94.8569 179.94 95.0147 180.005 95.131 180.122C95.2473 180.238 95.3127 180.396 95.3127 180.56L95.5236 222.256L180.069 174.742C180.14 174.696 180.219 174.666 180.302 174.653C180.386 174.639 180.471 174.643 180.553 174.663C180.634 174.684 180.711 174.72 180.778 174.772C180.845 174.823 180.901 174.887 180.943 174.96C180.984 175.034 181.01 175.115 181.019 175.199C181.028 175.283 181.02 175.367 180.995 175.448C180.97 175.529 180.929 175.603 180.874 175.667C180.819 175.732 180.752 175.784 180.676 175.821L95.2134 223.806C95.1233 223.875 95.0161 223.918 94.9033 223.931Z" fill="#2E2E2E"/>
<path d="M258.139 219.688C258.031 219.691 257.924 219.665 257.829 219.614L180.07 175.822C179.974 175.766 179.895 175.687 179.84 175.591C179.786 175.495 179.758 175.386 179.759 175.276V132.191C179.759 132.026 179.825 131.868 179.941 131.752C180.057 131.636 180.215 131.57 180.38 131.57C180.544 131.57 180.702 131.636 180.818 131.752C180.935 131.868 181 132.026 181 132.191V174.916L257.506 218.001L257.109 176.305C257.109 176.141 257.174 175.983 257.291 175.867C257.407 175.75 257.565 175.685 257.729 175.685C257.893 175.688 258.049 175.755 258.164 175.87C258.28 175.986 258.346 176.142 258.35 176.305L258.759 219.08C258.761 219.191 258.733 219.299 258.678 219.395C258.624 219.491 258.544 219.571 258.449 219.626C258.352 219.673 258.246 219.694 258.139 219.688Z" fill="#2E2E2E"/>
<path d="M258.14 219.687C258.03 219.686 257.924 219.656 257.829 219.601C257.736 219.546 257.658 219.469 257.603 219.375C257.549 219.282 257.52 219.175 257.519 219.067L257.11 176.292C257.11 176.128 257.175 175.97 257.292 175.854C257.408 175.737 257.566 175.672 257.73 175.672C257.894 175.675 258.05 175.741 258.165 175.857C258.281 175.973 258.347 176.129 258.35 176.292L258.76 218.013L301.808 193.635V180.374C301.808 180.209 301.873 180.051 301.989 179.935C302.106 179.819 302.263 179.753 302.428 179.753C302.593 179.753 302.75 179.819 302.867 179.935C302.983 180.051 303.048 180.209 303.048 180.374V194.02C303.05 194.13 303.022 194.239 302.967 194.335C302.913 194.431 302.834 194.511 302.738 194.566L258.45 219.638C258.352 219.681 258.245 219.698 258.14 219.687Z" fill="#2E2E2E"/>
<path d="M249.827 200.16C249.718 200.159 249.611 200.129 249.517 200.073L210.241 177.743C210.147 177.689 210.069 177.611 210.014 177.518C209.96 177.424 209.931 177.318 209.93 177.21V156.343C209.931 156.235 209.96 156.128 210.015 156.034C210.07 155.941 210.148 155.863 210.242 155.809C210.336 155.755 210.443 155.726 210.552 155.727C210.66 155.727 210.767 155.755 210.861 155.81L250.137 178.14C250.231 178.194 250.309 178.272 250.363 178.365C250.418 178.459 250.447 178.565 250.448 178.673V199.527C250.449 199.61 250.434 199.692 250.404 199.769C250.373 199.845 250.328 199.915 250.27 199.974C250.213 200.033 250.144 200.08 250.068 200.112C249.991 200.144 249.91 200.16 249.827 200.16ZM211.171 176.825L249.207 198.473V179.046L211.171 157.398V176.825Z" fill="#2E2E2E"/>
<path d="M239.431 194.23C239.322 194.229 239.215 194.199 239.121 194.143L220.637 183.449C220.542 183.386 220.467 183.299 220.419 183.196C220.371 183.093 220.352 182.979 220.364 182.866V162.273C220.364 162.164 220.394 162.058 220.448 161.964C220.503 161.87 220.581 161.792 220.676 161.738C220.77 161.684 220.876 161.656 220.985 161.656C221.094 161.656 221.2 161.685 221.294 161.739L239.791 172.433C239.885 172.487 239.963 172.565 240.017 172.659C240.072 172.752 240.101 172.858 240.101 172.967V193.548C240.111 193.638 240.1 193.73 240.07 193.817C240.04 193.903 239.991 193.981 239.927 194.046C239.863 194.112 239.785 194.162 239.7 194.194C239.614 194.225 239.522 194.238 239.431 194.23ZM221.604 182.556L238.861 192.481V173.376L221.604 163.451V182.606V182.556Z" fill="#2E2E2E"/>
<path d="M105.461 203.523C105.296 203.523 105.138 203.457 105.022 203.341C104.906 203.225 104.84 203.067 104.84 202.902V182.048C104.841 181.94 104.87 181.834 104.924 181.74C104.979 181.647 105.057 181.569 105.151 181.515L144.427 159.185C144.521 159.13 144.628 159.102 144.736 159.102C144.845 159.101 144.952 159.13 145.046 159.184C145.14 159.238 145.218 159.315 145.273 159.409C145.328 159.503 145.357 159.61 145.357 159.718V180.572C145.357 180.68 145.328 180.787 145.273 180.88C145.219 180.974 145.141 181.051 145.047 181.106L105.771 203.436C105.677 203.492 105.57 203.522 105.461 203.523ZM106.081 182.433V201.86L144.117 180.212V160.773L106.081 182.433Z" fill="#2E2E2E"/>
<path d="M105.758 187.072C105.621 187.072 105.487 187.027 105.378 186.944C105.268 186.862 105.188 186.745 105.151 186.613C105.129 186.519 105.129 186.422 105.151 186.328V182.184C105.151 182.076 105.18 181.97 105.235 181.876C105.289 181.783 105.367 181.705 105.461 181.651L144.191 159.618C144.285 159.564 144.392 159.535 144.501 159.535C144.609 159.535 144.716 159.563 144.81 159.617C144.904 159.671 144.983 159.749 145.037 159.843C145.092 159.937 145.121 160.043 145.122 160.152V164.407C145.121 164.515 145.092 164.621 145.038 164.715C144.983 164.808 144.905 164.886 144.812 164.94L106.155 186.923C106.045 187.018 105.904 187.071 105.758 187.072ZM106.379 182.544V185.348L143.869 164.01V161.181L106.379 182.544Z" fill="#2E2E2E"/>
<path d="M155.655 176.924C155.49 176.924 155.332 176.859 155.216 176.743C155.1 176.626 155.034 176.469 155.034 176.304V155.45C155.035 155.342 155.064 155.236 155.119 155.142C155.173 155.049 155.251 154.971 155.345 154.917L172.489 145.153C172.583 145.099 172.69 145.07 172.799 145.07C172.907 145.07 173.014 145.098 173.108 145.152C173.202 145.206 173.281 145.284 173.335 145.378C173.39 145.472 173.419 145.578 173.42 145.687V166.541C173.419 166.649 173.39 166.755 173.336 166.849C173.281 166.942 173.203 167.02 173.11 167.074L155.965 176.838C155.871 176.893 155.764 176.923 155.655 176.924ZM156.275 155.835V175.262L172.179 166.206V146.754L156.275 155.835Z" fill="#2E2E2E"/>
<path d="M131.314 140.69C131.205 140.689 131.098 140.659 131.004 140.603L87.3481 115.469C87.2544 115.415 87.1764 115.338 87.122 115.244C87.0676 115.15 87.0386 115.044 87.038 114.936V102.233C87.038 102.068 87.1033 101.91 87.2196 101.794C87.336 101.678 87.4937 101.612 87.6583 101.612C87.8228 101.612 87.9805 101.678 88.0969 101.794C88.2132 101.91 88.2785 102.068 88.2785 102.233V114.564L130.719 138.953L131.215 97.4811C131.211 97.3982 131.225 97.3153 131.256 97.2381C131.286 97.161 131.333 97.0913 131.393 97.0337C131.453 96.9762 131.525 96.9321 131.603 96.9044C131.681 96.8767 131.765 96.8661 131.847 96.8733C131.929 96.8749 132.009 96.8925 132.084 96.9252C132.159 96.9579 132.226 97.0049 132.282 97.0637C132.339 97.1224 132.383 97.1917 132.413 97.2676C132.443 97.3435 132.457 97.4245 132.455 97.506L131.947 140.033C131.952 140.118 131.939 140.204 131.91 140.285C131.88 140.365 131.834 140.438 131.774 140.5C131.715 140.562 131.643 140.611 131.564 140.644C131.485 140.676 131.4 140.692 131.314 140.69Z" fill="#2E2E2E"/>
<path d="M131.327 140.69C131.162 140.69 131.005 140.625 130.888 140.509C130.772 140.392 130.707 140.235 130.707 140.07V97.5929C130.707 97.4847 130.736 97.3785 130.791 97.2849C130.845 97.1913 130.923 97.1136 131.017 97.0595L224.197 44.087C224.291 44.0327 224.398 44.0041 224.506 44.0039C224.615 44.0037 224.722 44.0321 224.816 44.0861C224.91 44.1401 224.988 44.2179 225.043 44.3116C225.098 44.4054 225.127 44.5119 225.128 44.6205L225.438 87.4326C225.439 87.543 225.411 87.6517 225.357 87.7477C225.302 87.8436 225.223 87.9233 225.128 87.9785L131.637 140.566C131.547 140.635 131.44 140.678 131.327 140.69ZM131.947 98.0023V138.954L224.197 87.0728L223.887 45.6749L131.947 98.0023Z" fill="#2E2E2E"/>
<path d="M105.312 112.675C105.147 112.675 104.99 112.61 104.873 112.494C104.757 112.377 104.692 112.22 104.692 112.055V103.644C104.691 103.537 104.718 103.432 104.77 103.338C104.822 103.245 104.898 103.166 104.989 103.111L231.752 31.1573C231.846 31.103 231.953 31.0744 232.062 31.0742C232.17 31.0741 232.277 31.1024 232.371 31.1564C232.465 31.2104 232.544 31.2882 232.598 31.3819C232.653 31.4757 232.682 31.5822 232.683 31.6908V40.1019C232.684 40.2122 232.656 40.321 232.602 40.4169C232.547 40.5129 232.468 40.5925 232.373 40.6477L105.61 112.601C105.518 112.65 105.416 112.676 105.312 112.675ZM105.92 103.991V110.976L231.455 39.7669V32.7577L105.92 103.991Z" fill="#2E2E2E"/>
<path d="M105.299 112.662C105.191 112.665 105.084 112.639 104.989 112.588L53.3188 82.9876C53.2251 82.9335 53.1471 82.8557 53.0927 82.7622C53.0383 82.6686 53.0093 82.5624 53.0087 82.4541V74.0431C53.0071 73.9334 53.0347 73.8254 53.0885 73.7299C53.1423 73.6343 53.2205 73.5548 53.315 73.4993C53.4096 73.4439 53.5171 73.4144 53.6268 73.4141C53.7364 73.4137 53.8442 73.4424 53.9391 73.4972L105.584 103.097C105.678 103.151 105.756 103.229 105.81 103.323C105.865 103.416 105.894 103.522 105.894 103.631V112.042C105.894 112.202 105.832 112.356 105.721 112.472C105.61 112.587 105.459 112.656 105.299 112.662ZM54.2368 82.082L104.679 110.913V103.99L54.2244 75.1099V82.0944L54.2368 82.082Z" fill="#2E2E2E"/>
<path d="M105.299 104.589C105.19 104.588 105.083 104.558 104.989 104.502L53.3188 74.9392C53.2234 74.8851 53.144 74.8067 53.0887 74.7119C53.0335 74.6171 53.0044 74.5093 53.0044 74.3996C53.0044 74.2899 53.0335 74.1821 53.0887 74.0873C53.144 73.9925 53.2234 73.914 53.3188 73.8599L180.739 1.21201C180.834 1.15757 180.941 1.12891 181.05 1.12891C181.158 1.12891 181.265 1.15757 181.36 1.21201L232.621 31.1966C232.716 31.2507 232.796 31.3292 232.851 31.424C232.906 31.5188 232.935 31.6266 232.935 31.7363C232.935 31.846 232.906 31.9538 232.851 32.0486C232.796 32.1434 232.716 32.2218 232.621 32.2759L105.61 104.502C105.516 104.558 105.409 104.588 105.299 104.589ZM54.8695 74.3686L105.299 103.249L231.058 31.7301L181.037 2.46499L54.8695 74.3686Z" fill="#2E2E2E"/>
<path d="M137.666 125.589C137.502 125.589 137.344 125.524 137.228 125.407C137.111 125.291 137.046 125.133 137.046 124.969V104.115C137.047 104.007 137.076 103.9 137.13 103.807C137.184 103.713 137.262 103.635 137.356 103.581L176.633 81.2511C176.727 81.1968 176.833 81.1681 176.942 81.168C177.05 81.1678 177.157 81.1961 177.251 81.2501C177.345 81.3041 177.424 81.3819 177.479 81.4757C177.533 81.5695 177.562 81.676 177.563 81.7845V102.614C177.562 102.722 177.533 102.828 177.479 102.922C177.425 103.015 177.347 103.093 177.253 103.147L137.976 125.477C137.885 125.542 137.778 125.581 137.666 125.589ZM138.287 104.499V123.902L176.322 102.229V82.8266L138.287 104.499Z" fill="#2E2E2E"/>
<path d="M148.05 119.399C147.885 119.399 147.728 119.334 147.611 119.217C147.495 119.101 147.43 118.943 147.43 118.779V98.297C147.43 98.1887 147.459 98.0825 147.514 97.989C147.568 97.8954 147.646 97.8177 147.74 97.7635L166.237 87.169C166.331 87.1148 166.437 87.0861 166.546 87.0859C166.655 87.0858 166.761 87.1141 166.855 87.1681C166.95 87.2221 167.028 87.2999 167.083 87.3937C167.137 87.4874 167.167 87.5939 167.167 87.7025V108.432C167.167 108.544 167.138 108.654 167.081 108.75C167.024 108.846 166.943 108.925 166.845 108.978L148.41 119.325C148.3 119.385 148.175 119.411 148.05 119.399ZM148.67 98.6568V117.724L165.927 108.122V88.7694L148.67 98.6568Z" fill="#2E2E2E"/>
<path d="M194.026 96.0293C193.862 96.0293 193.704 95.9639 193.587 95.8476C193.471 95.7313 193.406 95.5735 193.406 95.409V74.5674C193.406 74.4591 193.435 74.3529 193.49 74.2593C193.544 74.1658 193.622 74.088 193.716 74.0339L210.861 64.2706C210.955 64.2163 211.061 64.1877 211.17 64.1875C211.278 64.1873 211.385 64.2157 211.479 64.2697C211.574 64.3237 211.652 64.4014 211.707 64.4952C211.761 64.589 211.79 64.6955 211.791 64.8041V85.6457C211.79 85.7539 211.761 85.8601 211.707 85.9537C211.653 86.0473 211.575 86.125 211.481 86.1791L194.311 95.9424C194.225 95.9941 194.127 96.024 194.026 96.0293ZM194.646 74.9395V94.3421L210.551 85.2859V65.8709L194.646 74.9395Z" fill="#2E2E2E"/>
<path d="M309.438 256.064C309.273 256.064 309.116 255.998 308.999 255.882C308.883 255.766 308.818 255.608 308.818 255.443V248.794C308.818 248.686 308.847 248.579 308.902 248.486C308.956 248.392 309.034 248.315 309.128 248.26L353.714 222.767C353.808 222.712 353.915 222.684 354.023 222.684C354.132 222.683 354.238 222.712 354.333 222.766C354.427 222.82 354.505 222.898 354.56 222.991C354.615 223.085 354.644 223.192 354.644 223.3V230.223C354.646 230.333 354.618 230.442 354.563 230.538C354.509 230.634 354.43 230.713 354.334 230.768L309.686 256.064C309.604 256.08 309.52 256.08 309.438 256.064ZM310.058 249.154V254.389L353.404 229.863V224.379L310.058 249.154Z" fill="#2E2E2E"/>
<path d="M309.438 249.426C309.328 249.425 309.222 249.395 309.127 249.339L283.745 234.453C283.65 234.398 283.57 234.32 283.515 234.225C283.46 234.13 283.431 234.023 283.431 233.913C283.431 233.803 283.46 233.695 283.515 233.601C283.57 233.506 283.65 233.427 283.745 233.373L327.885 208.649C327.977 208.6 328.079 208.574 328.183 208.574C328.286 208.574 328.389 208.6 328.48 208.649L354.346 222.766C354.442 222.82 354.521 222.899 354.576 222.994C354.632 223.089 354.661 223.196 354.661 223.306C354.661 223.416 354.632 223.523 354.576 223.618C354.521 223.713 354.442 223.792 354.346 223.846L309.686 249.339C309.61 249.386 309.526 249.415 309.438 249.426ZM285.308 233.919L309.45 248.086L352.87 223.275L328.22 209.84L285.308 233.919Z" fill="#2E2E2E"/>
<path d="M50.7627 255.814C50.6534 255.813 50.5464 255.783 50.4525 255.727L6.10205 230.084C5.99903 230.037 5.91102 229.962 5.84759 229.868C5.78415 229.774 5.74773 229.664 5.74228 229.551V223.187C5.74293 223.078 5.77207 222.972 5.82678 222.878C5.88148 222.784 5.95985 222.706 6.05403 222.652C6.14822 222.598 6.25493 222.57 6.3635 222.57C6.47206 222.57 6.57869 222.599 6.67271 222.653L51.0232 248.209C51.1169 248.263 51.1949 248.341 51.2493 248.435C51.3037 248.528 51.3327 248.634 51.3333 248.743V255.194C51.3338 255.35 51.2753 255.501 51.1695 255.616C51.0637 255.731 50.9184 255.801 50.7627 255.814ZM6.98285 229.191L50.0927 254.114V249.152L6.98285 224.266V229.228V229.191Z" fill="#2E2E2E"/>
<path d="M50.986 249.278C50.8767 249.277 50.7697 249.247 50.6758 249.191L6.32535 223.809C6.22989 223.755 6.15049 223.676 6.09524 223.581C6.04 223.487 6.01089 223.379 6.01089 223.269C6.01089 223.159 6.04 223.052 6.09524 222.957C6.15049 222.862 6.22989 222.784 6.32535 222.729L24.537 212.805C24.6286 212.756 24.7308 212.73 24.8347 212.73C24.9385 212.73 25.0408 212.756 25.1324 212.805L69.272 237.529C69.3675 237.584 69.4469 237.662 69.5021 237.757C69.5573 237.852 69.5864 237.959 69.5864 238.069C69.5864 238.179 69.5573 238.287 69.5021 238.381C69.4469 238.476 69.3675 238.555 69.272 238.609L51.2713 249.129C51.1909 249.203 51.0925 249.254 50.986 249.278ZM7.91328 223.325L50.986 247.938L67.7709 238.162L24.8471 214.132L7.91328 223.325Z" fill="#2E2E2E"/>
<path d="M193.443 291.704C193.278 291.704 193.121 291.639 193.004 291.523C192.888 291.406 192.823 291.249 192.823 291.084C192.823 290.92 192.888 290.762 193.004 290.646C193.121 290.529 193.278 290.464 193.443 290.464C209.074 288.901 223.217 284.695 234.469 278.319C248.884 270.118 256.799 259.263 256.799 247.739C256.799 236.214 248.859 225.408 234.469 217.158C217.721 207.631 194.609 203.078 171.038 204.653C170.957 204.659 170.875 204.649 170.797 204.623C170.72 204.597 170.648 204.556 170.587 204.502C170.462 204.394 170.386 204.241 170.374 204.077C170.363 203.912 170.417 203.75 170.525 203.625C170.633 203.501 170.787 203.424 170.951 203.413C194.745 201.825 218.093 206.44 235.076 216.079C249.889 224.515 258.052 235.755 258.052 247.739C258.052 259.722 249.889 270.962 235.076 279.398C223.725 285.861 209.372 290.116 193.567 291.692H193.443V291.704Z" fill="#2E2E2E"/>
<path d="M170.429 292.037C153.061 290.797 137.405 286.442 125.037 279.408C110.175 270.948 102.012 259.708 102.012 247.724C102.012 235.74 110.175 224.501 124.987 216.065C132.398 211.954 140.325 208.854 148.558 206.847C148.64 206.827 148.724 206.823 148.807 206.835C148.89 206.847 148.97 206.876 149.042 206.919C149.114 206.962 149.177 207.019 149.227 207.087C149.277 207.154 149.313 207.231 149.333 207.312C149.354 207.394 149.358 207.479 149.346 207.562C149.333 207.645 149.305 207.724 149.261 207.796C149.218 207.868 149.161 207.931 149.094 207.981C149.026 208.031 148.95 208.067 148.868 208.088C140.735 210.066 132.904 213.124 125.583 217.181C111.167 225.381 103.252 236.236 103.252 247.761C103.252 259.286 111.192 270.092 125.583 278.341C137.79 285.289 153.297 289.606 170.454 290.809C170.602 290.833 170.736 290.909 170.832 291.024C170.927 291.139 170.978 291.285 170.975 291.434C170.972 291.583 170.915 291.727 170.815 291.838C170.715 291.949 170.578 292.019 170.429 292.037Z" fill="#2E2E2E"/>
<path d="M174.065 212.232H173.966L148.534 207.927C148.408 207.904 148.292 207.842 148.203 207.751C148.113 207.659 148.054 207.542 148.034 207.416C148.014 207.29 148.033 207.16 148.089 207.045C148.145 206.93 148.236 206.835 148.348 206.773L167.589 196.402C167.667 196.369 167.752 196.352 167.837 196.352C167.922 196.352 168.007 196.369 168.085 196.402C168.166 196.432 168.24 196.478 168.302 196.538C168.364 196.598 168.412 196.67 168.445 196.75L174.648 211.426C174.677 211.518 174.684 211.616 174.668 211.711C174.653 211.806 174.615 211.897 174.559 211.975C174.502 212.054 174.428 212.118 174.342 212.162C174.256 212.207 174.161 212.231 174.065 212.232ZM150.494 206.997L173.035 210.818L167.564 197.754L150.494 206.997Z" fill="#2E2E2E"/>
<path d="M171.075 299.755C170.919 299.755 170.768 299.697 170.653 299.591C170.538 299.485 170.467 299.34 170.455 299.184L169.822 291.641L169.202 284.124C169.194 284.023 169.21 283.922 169.25 283.83C169.289 283.737 169.351 283.656 169.429 283.592C169.507 283.528 169.6 283.485 169.698 283.465C169.797 283.445 169.899 283.45 169.996 283.479L193.567 290.389C193.691 290.429 193.799 290.508 193.876 290.614C193.952 290.72 193.993 290.847 193.993 290.978C193.993 291.108 193.952 291.236 193.876 291.342C193.799 291.447 193.691 291.526 193.567 291.567L171.237 299.718C171.185 299.737 171.13 299.75 171.075 299.755ZM171.075 291.542L171.646 298.279L191.495 291.046L170.591 284.918L171.075 291.542Z" fill="#2E2E2E"/>
<path d="M186.434 277.534C183.456 277.534 181 276.803 179.859 273.875C179.535 273.285 179.115 272.753 178.618 272.299L178.395 272.064C176.211 269.706 170.951 269.272 167.502 271.17C159.774 275.5 159.488 275.537 152.293 273.416L151.052 273.056C148.186 272.212 146.648 271.245 146.226 270.004C145.805 268.764 146.661 267.399 147.541 266.183C147.996 265.612 148.379 264.987 148.683 264.322C148.996 263.236 148.996 262.084 148.683 260.998C147.541 259.943 144.465 259.571 139.304 259.844C133.101 260.179 130.334 258.938 128.858 255.068C128.312 253.616 127.779 251.954 128.56 250.552C129.342 249.15 131.215 248.22 134.763 247.513C140.259 246.384 141.698 245.23 141.934 244.461C141.964 244.154 141.914 243.845 141.788 243.565C141.661 243.284 141.464 243.041 141.214 242.86C140.941 242.612 140.656 242.364 140.334 242.091L140.147 241.955L140.036 241.856C139.36 241.312 138.652 240.811 137.914 240.354C137.431 240.057 136.847 239.722 136.24 239.387C135.336 238.903 134.459 238.373 133.61 237.799C133.175 237.489 132.009 236.645 132.518 235.727C133.372 234.271 134.453 232.961 135.719 231.844C137.119 230.561 138.663 229.445 140.321 228.519C141.314 227.974 143.472 228.333 146.661 228.966C147.479 229.127 148.286 229.289 148.98 229.4C150.147 229.586 151.338 229.735 152.516 229.834H152.591H152.876L154.501 229.934C156.883 229.996 158.508 229.537 159.302 228.581C159.675 228.013 159.914 227.366 160 226.691C160.086 226.016 160.017 225.33 159.798 224.686C159.632 224.102 159.592 223.489 159.68 222.889C159.767 222.288 159.981 221.712 160.307 221.2C161.548 219.339 164.786 218.719 168.495 218.198C174.202 217.367 177.787 217.652 180.367 221.523C182.265 224.351 184.176 225.629 186.57 225.679C188.573 225.342 190.533 224.784 192.413 224.016C193.288 223.596 194.13 223.111 194.932 222.565C197.599 220.828 200.366 219.041 206.271 221.523L207.387 221.982C210.762 223.383 212.461 224.078 212.92 225.443C213.379 226.807 212.56 228.284 210.824 231.336C210.63 231.649 210.528 232.01 210.528 232.378C210.528 232.746 210.63 233.106 210.824 233.42C211.667 234.884 214.136 235.901 217.126 235.901H217.672C218.74 235.948 219.81 235.911 220.872 235.789C228.167 234.76 229.445 237.414 230.797 240.218L231.157 240.962C231.513 241.507 231.737 242.126 231.813 242.772C231.888 243.418 231.812 244.073 231.591 244.684C230.921 246.111 229.11 247.078 225.463 247.885C219.148 249.287 218.019 250.676 218.019 251.383C218.019 252.09 218.553 253.381 223.354 255.576C225.711 256.656 226.914 257.723 227.075 258.951C227.348 260.464 226.095 261.705 224.755 263.032L224.234 263.553L223.614 264.087C221.058 266.27 218.863 268.156 212.325 266.444C206.593 264.943 202.834 264.943 201.16 266.444C200.179 267.325 199.919 268.764 200.179 270.823C200.323 271.433 200.336 272.066 200.218 272.682C200.101 273.298 199.855 273.881 199.497 274.396C198.43 275.785 196.309 276.542 192.413 276.951L191.173 277.1C189.602 277.332 188.02 277.476 186.434 277.534ZM172.477 268.739C173.728 268.679 174.978 268.868 176.155 269.294C177.333 269.72 178.414 270.374 179.338 271.22L179.561 271.456C180.163 272.02 180.659 272.688 181.025 273.428C182.265 276.753 185.665 276.542 191.011 275.909L192.252 275.76C195.738 275.401 197.661 274.756 198.455 273.676C198.71 273.294 198.881 272.862 198.958 272.409C199.035 271.956 199.016 271.491 198.902 271.046C198.517 268.565 198.976 266.729 200.279 265.551C202.326 263.702 206.345 263.603 212.598 265.253C218.503 266.804 220.389 265.253 222.771 263.156L223.837 262.176C224.929 261.097 225.959 260.067 225.81 259.199C225.661 258.33 224.644 257.611 222.733 256.718C218.416 254.745 216.53 252.996 216.679 251.259C216.828 249.522 219.557 247.922 225.103 246.681C228.217 245.974 229.891 245.18 230.375 244.2C230.514 243.749 230.548 243.272 230.474 242.806C230.401 242.339 230.223 241.896 229.953 241.508L229.581 240.751C228.341 238.159 227.336 236.099 220.897 237.03C219.765 237.163 218.624 237.204 217.486 237.154H216.952C213.479 237.154 210.662 235.913 209.595 234.077C209.296 233.577 209.138 233.004 209.138 232.421C209.138 231.838 209.296 231.265 209.595 230.765C211.059 228.184 211.878 226.683 211.593 225.889C211.307 225.095 209.595 224.339 206.755 223.173L205.638 222.701C200.328 220.481 198.07 221.944 195.453 223.644C194.592 224.233 193.688 224.755 192.748 225.207C190.731 226.035 188.624 226.626 186.471 226.969C183.568 226.969 181.273 225.418 179.164 222.267C177.055 219.116 174.561 218.545 168.495 219.488C165.207 219.972 162.168 220.53 161.151 221.969C160.932 222.339 160.791 222.751 160.738 223.178C160.684 223.604 160.719 224.038 160.84 224.45C161.287 226.634 161.039 228.247 160.084 229.413C159.128 230.579 157.119 231.274 154.265 231.211L152.38 231.075H152.156C150.916 230.963 149.774 230.814 148.596 230.628C147.876 230.517 147.07 230.355 146.226 230.194C144.303 229.822 141.4 229.251 140.731 229.624C139.159 230.503 137.693 231.56 136.364 232.775C135.232 233.777 134.258 234.944 133.473 236.236C134.44 237.061 135.507 237.762 136.649 238.32C137.269 238.667 137.89 239.002 138.373 239.312C139.194 239.819 139.982 240.379 140.731 240.987L140.83 241.062C141.202 241.372 141.512 241.632 141.822 241.918C142.246 242.248 142.568 242.69 142.752 243.195C142.937 243.699 142.975 244.245 142.864 244.771C142.356 246.421 139.85 247.637 134.751 248.679C131.736 249.299 129.999 250.093 129.441 251.16C128.883 252.227 129.243 253.12 129.813 254.633C130.93 257.549 132.654 258.963 139.031 258.616C144.899 258.293 148.112 258.802 149.477 260.253C149.539 260.321 149.586 260.401 149.613 260.489C150.047 261.887 150.047 263.384 149.613 264.781C149.291 265.546 148.874 266.267 148.373 266.928C147.653 267.932 146.971 268.875 147.219 269.62C147.405 270.178 148.261 271.021 151.226 271.89L152.466 272.25C159.302 274.259 159.302 274.259 166.721 270.103C168.489 269.157 170.472 268.686 172.477 268.739Z" fill="#2E2E2E"/>
<path d="M179.995 265.529C163.011 265.529 149.191 257.552 149.191 247.739C149.191 237.926 163.011 229.949 179.995 229.949C196.978 229.949 210.798 237.926 210.798 247.739C210.798 257.552 196.978 265.529 179.995 265.529ZM179.995 231.177C163.694 231.177 150.432 238.621 150.432 247.727C150.432 256.832 163.694 264.276 179.995 264.276C196.296 264.276 209.558 256.832 209.558 247.727C209.558 238.621 196.296 231.19 179.995 231.19V231.177Z" fill="#2E2E2E"/>
<path d="M180.293 253.109C175.454 253.109 171.609 250.827 171.609 247.924C171.609 245.021 175.405 242.738 180.293 242.738C185.181 242.738 188.977 245.021 188.977 247.924C188.977 250.827 185.131 253.109 180.293 253.109ZM180.293 243.979C176.286 243.979 172.849 245.79 172.849 247.924C172.849 250.058 176.236 251.869 180.293 251.869C184.349 251.869 187.736 250.058 187.736 247.924C187.736 245.79 184.3 243.979 180.293 243.979Z" fill="#2E2E2E"/>
<path d="M179.673 330.497C179.455 330.499 179.241 330.443 179.052 330.336L1.40029 228.51C1.21097 228.4 1.05389 228.243 0.944964 228.053C0.836037 227.864 0.779125 227.649 0.779993 227.43V220.371C0.779125 220.153 0.836037 219.938 0.944964 219.748C1.05389 219.559 1.21097 219.401 1.40029 219.292L48.1332 192.223V185.859L16.4982 166.444C16.3171 166.334 16.1673 166.179 16.0631 165.994C15.9588 165.81 15.9036 165.601 15.9027 165.389V155.465C15.9019 155.246 15.9588 155.031 16.0677 154.842C16.1766 154.652 16.3337 154.495 16.523 154.385L85.9214 114.216V103.634L53.0087 83.5611C52.8276 83.4509 52.6778 83.2961 52.5735 83.1115C52.4693 82.9269 52.4141 82.7186 52.4132 82.5066V74.7406C52.4123 74.522 52.4692 74.3071 52.5782 74.1176C52.6871 73.928 52.8442 73.7707 53.0335 73.6614L179.759 1.1623C179.948 1.05342 180.162 0.996094 180.38 0.996094C180.597 0.996094 180.811 1.05342 181 1.1623L232.298 30.6011C232.488 30.7104 232.645 30.8678 232.754 31.0573C232.862 31.2468 232.919 31.4618 232.919 31.6804V41.4437C232.918 41.6681 232.856 41.8882 232.741 42.0804C232.625 42.2727 232.459 42.4299 232.261 42.5354L225.872 45.9346V86.7122L336.507 149.485C336.699 149.593 336.859 149.75 336.97 149.939C337.081 150.129 337.14 150.345 337.14 150.564V161.866C337.14 162.081 337.084 162.293 336.977 162.48C336.871 162.667 336.717 162.823 336.532 162.933L304.91 181.628V187.261L359.632 218.684C359.821 218.794 359.978 218.951 360.087 219.14C360.196 219.33 360.253 219.545 360.252 219.764V226.822C360.253 227.041 360.196 227.256 360.087 227.446C359.978 227.635 359.821 227.792 359.632 227.902L180.293 330.336C180.104 330.443 179.89 330.499 179.673 330.497ZM3.26117 226.711L179.673 327.817L357.771 226.09V220.471L303.049 189.072C302.86 188.963 302.702 188.805 302.594 188.616C302.485 188.426 302.428 188.211 302.429 187.993V180.934C302.429 180.718 302.485 180.507 302.591 180.32C302.698 180.133 302.851 179.977 303.036 179.867L334.659 161.159V151.234L224.023 88.4614C223.832 88.3537 223.672 88.197 223.561 88.0073C223.45 87.8177 223.391 87.6019 223.391 87.3821V45.1654C223.391 44.941 223.453 44.7209 223.569 44.5287C223.684 44.3364 223.85 44.1792 224.048 44.0737L230.437 40.6745V32.3875L180.367 3.66826L54.9068 75.4602V81.7995L87.8071 101.884C87.9882 101.995 88.138 102.149 88.2423 102.334C88.3465 102.519 88.4017 102.727 88.4026 102.939V114.923C88.4035 115.141 88.3466 115.356 88.2376 115.546C88.1287 115.735 87.9716 115.893 87.7823 116.002L18.3839 156.221V164.707L50.0189 184.11C50.1999 184.22 50.3498 184.375 50.454 184.559C50.5583 184.744 50.6135 184.952 50.6143 185.164V192.93C50.6152 193.149 50.5583 193.364 50.4494 193.553C50.3404 193.743 50.1834 193.9 49.994 194.009L3.26117 221.091V226.723V226.711Z" fill="#2E2E2E"/>
</svg>
