<svg width="290" height="331" viewBox="0 0 290 331" fill="none" xmlns="http://www.w3.org/2000/svg">
<path d="M250.926 245.241C250.789 245.239 250.656 245.192 250.549 245.106C250.441 245.02 250.365 244.902 250.333 244.768C250.3 244.635 250.313 244.495 250.369 244.369C250.424 244.244 250.52 244.14 250.641 244.075L287.597 224.809V208.918L250.554 227.526C250.409 227.586 250.247 227.59 250.101 227.535C249.954 227.481 249.833 227.373 249.762 227.233C249.691 227.094 249.676 226.932 249.72 226.782C249.763 226.631 249.862 226.503 249.996 226.422L287.944 207.38C288.039 207.333 288.144 207.312 288.249 207.317C288.354 207.323 288.456 207.355 288.546 207.411C288.635 207.467 288.709 207.544 288.76 207.637C288.811 207.729 288.837 207.833 288.837 207.938V225.169C288.836 225.282 288.805 225.392 288.746 225.489C288.687 225.585 288.603 225.663 288.502 225.715L251.212 245.154C251.125 245.206 251.027 245.235 250.926 245.241Z" fill="#2E2E2E"/>
<path d="M260.913 222.232C260.748 222.232 260.59 222.166 260.474 222.05C260.358 221.934 260.292 221.776 260.292 221.611V187.174C260.292 187.058 260.325 186.944 260.386 186.845C260.448 186.746 260.535 186.667 260.64 186.616L287.932 172.97C288.026 172.923 288.131 172.902 288.237 172.907C288.342 172.912 288.444 172.945 288.533 173.001C288.623 173.056 288.697 173.134 288.748 173.226C288.799 173.319 288.825 173.422 288.825 173.528V207.953C288.825 208.069 288.793 208.183 288.731 208.282C288.67 208.381 288.582 208.46 288.478 208.511L261.186 222.157C261.102 222.203 261.008 222.228 260.913 222.232ZM261.533 187.496V220.557L287.584 207.519V174.533L261.533 187.496Z" fill="#2E2E2E"/>
<path d="M250.269 227.613C250.128 227.614 249.992 227.567 249.881 227.479C249.771 227.392 249.694 227.27 249.662 227.133C249.63 226.996 249.646 226.852 249.707 226.725C249.767 226.598 249.869 226.496 249.996 226.435L260.292 221.286V188.251L250.554 193.114C250.481 193.158 250.4 193.186 250.315 193.197C250.23 193.208 250.145 193.202 250.063 193.178C249.981 193.155 249.904 193.114 249.839 193.06C249.773 193.006 249.719 192.938 249.681 192.862C249.642 192.786 249.62 192.703 249.615 192.618C249.61 192.532 249.623 192.447 249.652 192.367C249.682 192.287 249.728 192.214 249.787 192.153C249.846 192.091 249.917 192.042 249.996 192.01L260.64 186.7C260.734 186.654 260.839 186.632 260.945 186.638C261.05 186.643 261.152 186.675 261.241 186.731C261.331 186.787 261.404 186.865 261.455 186.957C261.506 187.049 261.533 187.153 261.533 187.258V221.683C261.533 221.8 261.501 221.914 261.439 222.012C261.378 222.111 261.29 222.19 261.186 222.242L250.554 227.526C250.468 227.579 250.37 227.608 250.269 227.613Z" fill="#2E2E2E"/>
<path d="M260.28 178.091C260.116 178.091 259.958 178.025 259.841 177.909C259.725 177.793 259.66 177.635 259.66 177.47V143.02C259.66 142.904 259.692 142.79 259.753 142.691C259.815 142.593 259.903 142.513 260.007 142.462L287.944 128.481C288.039 128.435 288.144 128.413 288.249 128.419C288.354 128.424 288.456 128.456 288.546 128.512C288.635 128.568 288.709 128.646 288.76 128.738C288.811 128.83 288.838 128.934 288.837 129.039V163.862C288.838 163.978 288.805 164.092 288.744 164.191C288.682 164.289 288.594 164.369 288.49 164.42L260.553 178.066C260.465 178.094 260.372 178.103 260.28 178.091ZM260.9 143.355V176.428L287.597 163.44V129.945L260.9 143.355Z" fill="#2E2E2E"/>
<path d="M250.269 183.129C250.128 183.13 249.992 183.082 249.881 182.995C249.771 182.908 249.694 182.786 249.662 182.649C249.63 182.512 249.646 182.368 249.707 182.241C249.767 182.114 249.869 182.012 249.996 181.951L259.66 177.137V144.077L250.554 148.63C250.41 148.69 250.248 148.693 250.101 148.639C249.954 148.584 249.833 148.477 249.762 148.337C249.691 148.197 249.676 148.036 249.72 147.885C249.763 147.735 249.862 147.606 249.996 147.525L259.995 142.563C260.089 142.517 260.194 142.495 260.3 142.501C260.405 142.506 260.507 142.538 260.596 142.594C260.686 142.65 260.759 142.728 260.81 142.82C260.861 142.912 260.888 143.016 260.888 143.122V177.559C260.888 177.675 260.856 177.789 260.794 177.888C260.733 177.987 260.645 178.066 260.541 178.117L250.542 183.079C250.456 183.116 250.362 183.133 250.269 183.129Z" fill="#2E2E2E"/>
<path d="M259.449 133.507C259.284 133.507 259.127 133.442 259.01 133.325C258.894 133.209 258.829 133.051 258.829 132.887V98.5112C258.828 98.3949 258.861 98.2809 258.922 98.1822C258.984 98.0835 259.072 98.0041 259.176 97.9529L287.932 83.575C288.026 83.5286 288.131 83.5071 288.237 83.5125C288.342 83.518 288.444 83.5501 288.533 83.606C288.623 83.6619 288.697 83.7396 288.748 83.8318C288.799 83.9241 288.825 84.0278 288.825 84.1332V118.509C288.825 118.625 288.793 118.739 288.731 118.838C288.67 118.936 288.582 119.016 288.478 119.067L259.747 133.445C259.654 133.49 259.552 133.511 259.449 133.507ZM260.069 98.8461V131.882L287.584 118.124V85.0885L260.069 98.8461Z" fill="#2E2E2E"/>
<path d="M250.269 138.209C250.128 138.209 249.992 138.162 249.881 138.075C249.771 137.988 249.694 137.866 249.662 137.729C249.63 137.592 249.646 137.448 249.707 137.321C249.767 137.194 249.869 137.092 249.996 137.03L258.841 132.614V99.5163L250.554 103.66C250.41 103.72 250.248 103.723 250.101 103.669C249.954 103.615 249.833 103.507 249.762 103.367C249.691 103.227 249.676 103.066 249.72 102.915C249.763 102.765 249.862 102.636 249.996 102.556L259.176 97.9656C259.271 97.9192 259.376 97.8977 259.481 97.9032C259.586 97.9086 259.688 97.9408 259.778 97.9966C259.867 98.0525 259.941 98.1302 259.992 98.2225C260.043 98.3147 260.069 98.4185 260.069 98.5239V132.961C260.069 133.078 260.037 133.192 259.975 133.29C259.914 133.389 259.826 133.468 259.722 133.52L250.542 138.11C250.46 138.164 250.366 138.198 250.269 138.209Z" fill="#2E2E2E"/>
<path d="M141.546 269.508C141.406 269.509 141.269 269.461 141.159 269.374C141.049 269.287 140.971 269.165 140.939 269.028C140.908 268.891 140.923 268.747 140.984 268.62C141.045 268.493 141.147 268.391 141.273 268.329L169.186 254.485C169.259 254.449 169.339 254.428 169.42 254.423C169.501 254.418 169.583 254.429 169.66 254.456C169.737 254.482 169.809 254.523 169.87 254.577C169.931 254.631 169.981 254.697 170.017 254.77C170.053 254.844 170.074 254.923 170.079 255.005C170.084 255.086 170.073 255.168 170.046 255.245C170.02 255.322 169.978 255.393 169.924 255.455C169.87 255.516 169.805 255.566 169.731 255.602L141.794 269.446C141.717 269.484 141.632 269.505 141.546 269.508Z" fill="#2E2E2E"/>
<path d="M57.7832 317.778C57.6971 317.775 57.6126 317.753 57.5351 317.716L1.53693 289.704C1.43253 289.653 1.34462 289.574 1.2832 289.475C1.22178 289.376 1.18934 289.262 1.18958 289.146L1.09033 135.108C1.09117 135.001 1.11919 134.897 1.17173 134.805C1.22426 134.713 1.29954 134.636 1.39039 134.581C1.48123 134.526 1.5846 134.496 1.69062 134.493C1.79663 134.489 1.90175 134.513 1.99593 134.562L58.081 163.925C58.1812 163.977 58.2653 164.056 58.3243 164.152C58.3834 164.248 58.415 164.358 58.4159 164.471V317.158C58.4159 317.24 58.3995 317.322 58.3675 317.398C58.3356 317.474 58.2888 317.543 58.2299 317.601C58.171 317.658 58.1011 317.704 58.0244 317.734C57.9477 317.765 57.8657 317.779 57.7832 317.778ZM2.43012 288.761L57.163 316.153V164.806L2.33088 136.137L2.43012 288.761Z" fill="#2E2E2E"/>
<path d="M141.546 198.584C141.406 198.584 141.269 198.537 141.159 198.45C141.048 198.362 140.971 198.24 140.939 198.103C140.908 197.966 140.923 197.823 140.984 197.696C141.045 197.569 141.147 197.466 141.273 197.405L162.698 186.674V151.852L141.832 162.298C141.758 162.342 141.677 162.37 141.593 162.381C141.508 162.392 141.422 162.386 141.34 162.362C141.258 162.339 141.182 162.298 141.116 162.244C141.05 162.19 140.997 162.122 140.958 162.046C140.92 161.97 140.897 161.887 140.892 161.802C140.888 161.716 140.9 161.631 140.93 161.551C140.96 161.471 141.005 161.398 141.064 161.337C141.123 161.275 141.195 161.226 141.273 161.194L162.983 150.302C163.078 150.255 163.182 150.234 163.288 150.239C163.393 150.245 163.495 150.277 163.585 150.333C163.674 150.388 163.748 150.466 163.799 150.558C163.85 150.651 163.876 150.754 163.876 150.86V187.059C163.876 187.175 163.844 187.289 163.782 187.388C163.721 187.487 163.633 187.566 163.529 187.617L141.77 198.522C141.7 198.556 141.624 198.577 141.546 198.584Z" fill="#2E2E2E"/>
<path d="M148.096 195.272C147.932 195.272 147.774 195.207 147.658 195.09C147.541 194.974 147.476 194.816 147.476 194.652V158.515C147.476 158.35 147.541 158.193 147.658 158.076C147.774 157.96 147.932 157.895 148.096 157.895C148.261 157.895 148.419 157.96 148.535 158.076C148.651 158.193 148.717 158.35 148.717 158.515V194.701C148.704 194.857 148.633 195.003 148.518 195.108C148.403 195.214 148.253 195.273 148.096 195.272Z" fill="#2E2E2E"/>
<path d="M194.543 268.467C194.448 268.467 194.355 268.446 194.27 268.405L169.012 255.763C168.908 255.712 168.82 255.633 168.758 255.534C168.697 255.435 168.665 255.321 168.665 255.205L168.863 98.6484C168.864 98.5468 168.889 98.4469 168.937 98.3575C168.986 98.268 169.055 98.1918 169.14 98.1354C169.224 98.0791 169.321 98.0443 169.422 98.0343C169.523 98.0242 169.625 98.0392 169.719 98.0778L194.778 108.213C194.892 108.26 194.989 108.339 195.057 108.44C195.125 108.542 195.162 108.661 195.163 108.784V267.846C195.163 268.011 195.098 268.169 194.981 268.285C194.865 268.401 194.707 268.467 194.543 268.467ZM169.905 254.821L193.922 266.842V109.205L170.104 99.5788L169.905 254.821Z" fill="#2E2E2E"/>
<path d="M194.543 279.629C194.448 279.63 194.355 279.609 194.27 279.567L169.012 267.162C168.908 267.111 168.82 267.031 168.758 266.932C168.697 266.834 168.665 266.72 168.665 266.603V255.215C168.665 255.11 168.691 255.006 168.742 254.914C168.793 254.822 168.867 254.744 168.956 254.688C169.046 254.632 169.148 254.6 169.253 254.595C169.358 254.589 169.463 254.611 169.558 254.657L194.816 267.298C194.92 267.349 195.008 267.429 195.069 267.527C195.131 267.626 195.163 267.74 195.163 267.856V279.021C195.16 279.184 195.093 279.338 194.977 279.452C194.861 279.566 194.705 279.629 194.543 279.629ZM169.905 266.206L193.922 278.016V268.229L169.905 256.208V266.206Z" fill="#2E2E2E"/>
<path d="M194.32 268.329C194.155 268.329 193.997 268.263 193.881 268.147C193.765 268.031 193.699 267.873 193.699 267.708V108.646C193.699 108.53 193.732 108.416 193.793 108.317C193.854 108.218 193.942 108.139 194.047 108.088L249.995 80.6219C250.09 80.5755 250.195 80.554 250.3 80.5594C250.405 80.5648 250.508 80.597 250.597 80.6529C250.686 80.7087 250.76 80.7865 250.811 80.8787C250.862 80.971 250.889 81.0747 250.888 81.1801V240.255C250.889 240.371 250.856 240.485 250.795 240.584C250.733 240.683 250.646 240.762 250.541 240.813L194.593 268.267C194.507 268.308 194.414 268.329 194.32 268.329ZM194.94 109.03V266.716L249.648 239.871V82.1849L194.94 109.03Z" fill="#2E2E2E"/>
<path d="M85.5472 318.56L57.7962 317.754C57.6339 317.75 57.4793 317.684 57.3656 317.568C57.252 317.452 57.1883 317.296 57.1884 317.133V164.472C57.1879 164.389 57.2041 164.306 57.2361 164.23C57.268 164.153 57.3151 164.083 57.3744 164.025C57.4996 163.919 57.6569 163.858 57.821 163.852L85.572 164.509C85.7344 164.512 85.889 164.579 86.0026 164.695C86.1163 164.811 86.1799 164.967 86.1799 165.129V317.94C86.1799 318.022 86.1635 318.104 86.1315 318.18C86.0996 318.256 86.0528 318.325 85.9939 318.383C85.9349 318.44 85.8651 318.486 85.7884 318.516C85.7117 318.547 85.6297 318.562 85.5472 318.56ZM58.4041 316.538L84.9145 317.307V165.725L58.4041 165.105V316.538Z" fill="#2E2E2E"/>
<path d="M57.7708 329.375C57.6842 329.351 57.6038 329.309 57.5351 329.251L1.52451 300.718C1.42243 300.665 1.33705 300.585 1.27791 300.486C1.21876 300.388 1.18817 300.275 1.18956 300.16V289.305C1.18935 289.2 1.216 289.096 1.26701 289.004C1.31802 288.911 1.3917 288.834 1.48109 288.778C1.57048 288.722 1.67263 288.69 1.7779 288.684C1.88317 288.679 1.98809 288.7 2.08275 288.747L58.0437 316.609C58.1481 316.661 58.236 316.74 58.2975 316.839C58.3589 316.938 58.3913 317.051 58.3911 317.168V328.792C58.3816 328.95 58.3121 329.098 58.1968 329.206C58.0815 329.315 57.9291 329.375 57.7708 329.375ZM2.4301 299.75L57.1505 327.75V317.528L2.4301 290.236V299.701V299.75Z" fill="#2E2E2E"/>
<path d="M85.5472 330.245L57.7714 329.376C57.6112 329.37 57.4597 329.302 57.3487 329.186C57.2377 329.07 57.1758 328.916 57.1759 328.756V317.132C57.1754 317.049 57.1916 316.967 57.2236 316.89C57.2556 316.813 57.3026 316.744 57.362 316.685C57.483 316.572 57.643 316.51 57.8086 316.512L85.5844 317.38C85.7446 317.387 85.896 317.455 86.007 317.57C86.118 317.686 86.18 317.84 86.1799 318V329.624C86.1799 329.707 86.1634 329.789 86.1315 329.865C86.0995 329.941 86.0527 330.01 85.9938 330.067C85.9349 330.125 85.8651 330.171 85.7884 330.201C85.7117 330.231 85.6297 330.246 85.5472 330.245ZM58.3916 328.148L84.9269 328.979V318.596L58.3916 317.765V328.148Z" fill="#2E2E2E"/>
<path d="M141.546 253.851C141.406 253.852 141.269 253.805 141.159 253.717C141.049 253.63 140.971 253.508 140.939 253.371C140.908 253.234 140.923 253.09 140.984 252.963C141.045 252.836 141.147 252.734 141.273 252.673L163.231 241.681V208.919L141.832 219.637C141.687 219.697 141.525 219.7 141.378 219.646C141.231 219.592 141.11 219.484 141.04 219.344C140.969 219.204 140.954 219.043 140.997 218.893C141.04 218.742 141.139 218.614 141.273 218.533L163.603 207.368C163.698 207.322 163.803 207.3 163.908 207.306C164.013 207.311 164.115 207.343 164.205 207.399C164.294 207.455 164.368 207.533 164.419 207.625C164.47 207.717 164.497 207.821 164.496 207.926V242.029C164.497 242.145 164.464 242.259 164.403 242.358C164.341 242.456 164.253 242.536 164.149 242.587L141.819 253.752C141.738 253.807 141.644 253.841 141.546 253.851Z" fill="#2E2E2E"/>
<path d="M148.965 249.858C148.824 249.859 148.688 249.812 148.577 249.724C148.467 249.637 148.39 249.515 148.358 249.378C148.326 249.241 148.342 249.097 148.403 248.97C148.463 248.844 148.565 248.741 148.692 248.68L149.325 248.37V215.495C149.325 215.331 149.39 215.173 149.506 215.057C149.623 214.94 149.78 214.875 149.945 214.875C150.109 214.875 150.267 214.94 150.383 215.057C150.5 215.173 150.565 215.331 150.565 215.495V248.754C150.565 248.871 150.533 248.985 150.471 249.083C150.41 249.182 150.322 249.261 150.218 249.313L149.25 249.796C149.161 249.839 149.063 249.861 148.965 249.858Z" fill="#2E2E2E"/>
<path d="M85.2126 165.749L57.4613 165.092C57.3658 165.088 57.2724 165.063 57.1884 165.017L1.42528 135.653C1.32041 135.603 1.23197 135.523 1.17008 135.425C1.1082 135.326 1.07538 135.212 1.07538 135.095C1.07538 134.979 1.1082 134.865 1.17008 134.766C1.23197 134.667 1.32041 134.588 1.42528 134.537L40.5029 116.549C40.577 116.515 40.6571 116.496 40.7387 116.492C40.8203 116.489 40.9017 116.502 40.9783 116.53C41.0549 116.558 41.1252 116.601 41.1852 116.657C41.2451 116.712 41.2936 116.779 41.3278 116.853C41.362 116.927 41.3813 117.007 41.3846 117.089C41.3878 117.17 41.3749 117.252 41.3467 117.328C41.3185 117.405 41.2755 117.475 41.2201 117.535C41.1647 117.595 41.098 117.644 41.0239 117.678L3.11244 135.145L57.6226 163.851L85.0761 164.496L139.772 136.088L116.586 125.469C116.481 125.418 116.393 125.338 116.331 125.24C116.269 125.141 116.236 125.027 116.236 124.91C116.236 124.794 116.269 124.68 116.331 124.581C116.393 124.482 116.481 124.403 116.586 124.352L168.888 98.1021C168.968 98.0662 169.055 98.0476 169.142 98.0476C169.23 98.0476 169.317 98.0662 169.397 98.1021L194.208 108.126L286.307 62.2256L209.169 35.5911L91.0308 93.4873C90.8827 93.5597 90.712 93.5703 90.5561 93.5168C90.4002 93.4633 90.272 93.35 90.1996 93.202C90.1272 93.0539 90.1166 92.8832 90.1701 92.7273C90.2236 92.5714 90.3369 92.4432 90.4849 92.3708L208.884 34.3629C209.035 34.3009 209.204 34.3009 209.355 34.3629L288.106 61.4937C288.221 61.5335 288.322 61.6066 288.396 61.7037C288.471 61.8008 288.514 61.9177 288.522 62.0396C288.53 62.1615 288.502 62.283 288.441 62.3889C288.38 62.4948 288.29 62.5804 288.18 62.635L194.481 109.341C194.401 109.377 194.314 109.396 194.227 109.396C194.139 109.396 194.052 109.377 193.972 109.341L169.161 99.3179L118.323 124.886L141.472 135.505C141.577 135.555 141.665 135.635 141.727 135.733C141.789 135.832 141.822 135.946 141.822 136.063C141.822 136.179 141.789 136.294 141.727 136.392C141.665 136.491 141.577 136.57 141.472 136.621L85.4979 165.675C85.4101 165.722 85.3123 165.748 85.2126 165.749Z" fill="#2E2E2E"/>
<path d="M85.5475 318.433C85.383 318.433 85.2252 318.368 85.1089 318.252C84.9926 318.135 84.9272 317.977 84.9272 317.813V165.127C84.9281 165.014 84.9598 164.903 85.0188 164.807C85.0778 164.711 85.162 164.633 85.2622 164.581L141.223 135.515C141.317 135.466 141.422 135.442 141.528 135.446C141.635 135.449 141.738 135.48 141.829 135.534C141.92 135.589 141.995 135.666 142.047 135.758C142.1 135.851 142.128 135.955 142.129 136.061V289.553C142.13 289.668 142.1 289.781 142.04 289.88C141.981 289.979 141.896 290.059 141.794 290.112L85.8204 318.371C85.7354 318.412 85.642 318.434 85.5475 318.433ZM86.1678 165.499V316.845L140.888 289.206V137.078L86.1678 165.499Z" fill="#2E2E2E"/>
<path d="M85.5475 330.259C85.383 330.259 85.2252 330.193 85.1089 330.077C84.9926 329.961 84.9272 329.803 84.9272 329.638V318.014C84.9258 317.899 84.9564 317.786 85.0156 317.688C85.0747 317.589 85.1601 317.509 85.2622 317.456L141.223 289.023C141.316 288.97 141.42 288.941 141.527 288.941C141.634 288.941 141.739 288.97 141.831 289.023C141.922 289.079 141.998 289.157 142.05 289.25C142.102 289.344 142.129 289.449 142.129 289.556V301.441C142.129 301.557 142.097 301.671 142.035 301.77C141.974 301.868 141.886 301.948 141.781 301.999L85.8204 330.184C85.7366 330.23 85.6431 330.256 85.5475 330.259ZM86.1678 318.399V328.633L140.888 301.093V290.598L86.1678 318.399Z" fill="#2E2E2E"/>
<path d="M194.617 279.629C194.453 279.629 194.295 279.564 194.179 279.447C194.062 279.331 193.997 279.173 193.997 279.009V267.298C193.997 267.134 194.062 266.976 194.179 266.86C194.295 266.743 194.453 266.678 194.617 266.678C194.782 266.678 194.94 266.743 195.056 266.86C195.172 266.976 195.238 267.134 195.238 267.298V278.004L249.66 250.228V240.304C249.66 240.139 249.726 239.982 249.842 239.865C249.958 239.749 250.116 239.684 250.281 239.684C250.445 239.684 250.603 239.749 250.719 239.865C250.836 239.982 250.901 240.139 250.901 240.304V250.65C250.902 250.765 250.872 250.878 250.813 250.977C250.753 251.075 250.668 251.155 250.566 251.208L194.915 279.617C194.818 279.645 194.716 279.649 194.617 279.629Z" fill="#2E2E2E"/>
<path d="M85.5475 175.287C85.4069 175.288 85.2702 175.241 85.16 175.153C85.0497 175.066 84.9724 174.944 84.9407 174.807C84.909 174.67 84.9247 174.526 84.9854 174.399C85.0461 174.273 85.148 174.17 85.2746 174.109L141.236 146.048C141.38 145.987 141.542 145.984 141.689 146.038C141.836 146.093 141.957 146.201 142.028 146.34C142.098 146.48 142.113 146.641 142.07 146.792C142.027 146.942 141.928 147.071 141.794 147.152L85.8204 175.225C85.7354 175.266 85.642 175.288 85.5475 175.287Z" fill="#2E2E2E"/>
<path d="M208.512 156.468C208.347 156.468 208.189 156.403 208.073 156.286C207.957 156.17 207.891 156.012 207.891 155.848V122.006C207.891 121.889 207.924 121.775 207.985 121.677C208.046 121.578 208.134 121.499 208.239 121.447L236.771 107.169C236.866 107.122 236.971 107.101 237.076 107.106C237.181 107.112 237.283 107.144 237.373 107.2C237.462 107.256 237.536 107.333 237.587 107.426C237.638 107.518 237.665 107.622 237.664 107.727V141.569C237.665 141.685 237.632 141.799 237.571 141.898C237.509 141.997 237.421 142.076 237.317 142.127L208.784 156.406C208.699 156.447 208.606 156.468 208.512 156.468ZM209.132 122.39V154.843L236.424 141.197V108.732L209.132 122.39Z" fill="#2E2E2E"/>
<path d="M209.467 204.589C209.302 204.589 209.145 204.524 209.028 204.407C208.912 204.291 208.847 204.133 208.847 203.969V170.127C208.846 170.01 208.879 169.897 208.94 169.798C209.002 169.699 209.09 169.62 209.194 169.569L237.726 155.29C237.821 155.243 237.926 155.222 238.031 155.227C238.137 155.233 238.239 155.265 238.328 155.321C238.418 155.377 238.491 155.454 238.542 155.547C238.593 155.639 238.62 155.743 238.62 155.848V189.69C238.62 189.806 238.587 189.92 238.526 190.019C238.465 190.118 238.377 190.197 238.272 190.248L209.74 204.527C209.655 204.568 209.561 204.589 209.467 204.589ZM210.124 170.462V202.964L237.416 189.318V156.816L210.124 170.462Z" fill="#2E2E2E"/>
<path d="M209.467 251.741C209.302 251.741 209.145 251.676 209.028 251.56C208.912 251.443 208.847 251.286 208.847 251.121V217.279C208.846 217.163 208.879 217.049 208.94 216.95C209.002 216.851 209.09 216.772 209.194 216.721L237.726 202.442C237.821 202.396 237.926 202.374 238.031 202.38C238.137 202.385 238.239 202.417 238.328 202.473C238.418 202.529 238.491 202.607 238.542 202.699C238.593 202.791 238.62 202.895 238.62 203V236.83C238.62 236.946 238.587 237.06 238.526 237.159C238.465 237.258 238.377 237.337 238.272 237.388L209.74 251.667C209.656 251.713 209.562 251.738 209.467 251.741ZM210.124 217.602V250.054L237.416 236.408V203.956L210.124 217.602Z" fill="#2E2E2E"/>
<path d="M222.369 149.536C222.204 149.536 222.046 149.47 221.93 149.354C221.814 149.238 221.748 149.08 221.748 148.915V115.073C221.748 114.909 221.814 114.751 221.93 114.635C222.046 114.518 222.204 114.453 222.369 114.453C222.533 114.453 222.691 114.518 222.807 114.635C222.923 114.751 222.989 114.909 222.989 115.073V148.915C222.989 149.08 222.923 149.238 222.807 149.354C222.691 149.47 222.533 149.536 222.369 149.536Z" fill="#2E2E2E"/>
<path d="M223.77 197.444C223.606 197.444 223.448 197.378 223.332 197.262C223.216 197.146 223.15 196.988 223.15 196.824V163.019C223.15 162.854 223.216 162.696 223.332 162.58C223.448 162.464 223.606 162.398 223.77 162.398C223.935 162.398 224.093 162.464 224.209 162.58C224.325 162.696 224.391 162.854 224.391 163.019V196.861C224.381 197.019 224.312 197.167 224.196 197.276C224.081 197.384 223.929 197.444 223.77 197.444Z" fill="#2E2E2E"/>
<path d="M223.77 244.508C223.606 244.508 223.448 244.443 223.332 244.327C223.216 244.21 223.15 244.053 223.15 243.888V210.046C223.15 209.882 223.216 209.724 223.332 209.607C223.448 209.491 223.606 209.426 223.77 209.426C223.935 209.426 224.093 209.491 224.209 209.607C224.325 209.724 224.391 209.882 224.391 210.046V243.888C224.391 244.053 224.325 244.21 224.209 244.327C224.093 244.443 223.935 244.508 223.77 244.508Z" fill="#2E2E2E"/>
<path d="M100.149 207.418C99.9843 207.418 99.8266 207.353 99.7102 207.236C99.5939 207.12 99.5286 206.962 99.5286 206.798V172.943C99.5283 172.827 99.5608 172.713 99.6222 172.614C99.6836 172.516 99.7715 172.436 99.8759 172.385L128.408 158.106C128.503 158.06 128.608 158.038 128.713 158.044C128.819 158.049 128.921 158.081 129.01 158.137C129.1 158.193 129.173 158.271 129.224 158.363C129.275 158.455 129.302 158.559 129.302 158.664V192.507C129.302 192.623 129.269 192.737 129.208 192.835C129.147 192.934 129.059 193.014 128.954 193.065L100.422 207.343C100.338 207.389 100.244 207.414 100.149 207.418ZM100.769 173.34V205.793L128.061 192.147V159.682L100.769 173.34Z" fill="#2E2E2E"/>
<path d="M101.116 255.538C100.952 255.538 100.794 255.472 100.678 255.356C100.562 255.24 100.496 255.082 100.496 254.917V221.088C100.496 220.971 100.528 220.857 100.59 220.759C100.651 220.66 100.739 220.581 100.844 220.529L129.376 206.251C129.471 206.204 129.576 206.183 129.681 206.188C129.786 206.194 129.888 206.226 129.978 206.282C130.067 206.338 130.141 206.415 130.192 206.508C130.243 206.6 130.27 206.704 130.269 206.809V240.651C130.27 240.767 130.237 240.881 130.176 240.98C130.114 241.079 130.026 241.158 129.922 241.209L101.389 255.488C101.303 255.525 101.21 255.542 101.116 255.538ZM101.737 221.46V253.913L129.029 240.267V207.801L101.737 221.46Z" fill="#2E2E2E"/>
<path d="M101.116 302.693C100.952 302.693 100.794 302.628 100.678 302.512C100.562 302.395 100.496 302.237 100.496 302.073V268.256C100.496 268.139 100.528 268.025 100.59 267.927C100.651 267.828 100.739 267.749 100.844 267.697L129.376 253.419C129.471 253.372 129.576 253.351 129.681 253.356C129.786 253.362 129.888 253.394 129.978 253.45C130.067 253.506 130.141 253.583 130.192 253.676C130.243 253.768 130.27 253.872 130.269 253.977V287.819C130.27 287.935 130.237 288.049 130.176 288.148C130.114 288.247 130.026 288.326 129.922 288.377L101.389 302.644C101.303 302.681 101.21 302.697 101.116 302.693ZM101.737 268.628V301.068L129.029 287.422V254.969L101.737 268.628Z" fill="#2E2E2E"/>
<path d="M114.006 200.484C113.841 200.484 113.684 200.419 113.567 200.303C113.451 200.186 113.386 200.029 113.386 199.864V166.034C113.386 165.87 113.451 165.712 113.567 165.596C113.684 165.479 113.841 165.414 114.006 165.414C114.17 165.414 114.328 165.479 114.444 165.596C114.561 165.712 114.626 165.87 114.626 166.034V199.864C114.626 200.029 114.561 200.186 114.444 200.303C114.328 200.419 114.17 200.484 114.006 200.484Z" fill="#2E2E2E"/>
<path d="M115.371 248.394C115.206 248.394 115.048 248.329 114.932 248.213C114.816 248.096 114.75 247.939 114.75 247.774V213.944C114.75 213.78 114.816 213.622 114.932 213.506C115.048 213.39 115.206 213.324 115.371 213.324C115.535 213.324 115.693 213.39 115.809 213.506C115.925 213.622 115.991 213.78 115.991 213.944V247.762C115.992 247.844 115.978 247.926 115.947 248.003C115.917 248.08 115.871 248.149 115.814 248.208C115.756 248.267 115.687 248.314 115.611 248.346C115.535 248.378 115.453 248.394 115.371 248.394Z" fill="#2E2E2E"/>
<path d="M115.371 295.473C115.206 295.473 115.048 295.407 114.932 295.291C114.816 295.175 114.75 295.017 114.75 294.852V261.023C114.75 260.858 114.816 260.7 114.932 260.584C115.048 260.468 115.206 260.402 115.371 260.402C115.535 260.402 115.693 260.468 115.809 260.584C115.925 260.7 115.991 260.858 115.991 261.023V294.865C115.988 295.027 115.921 295.182 115.805 295.295C115.689 295.409 115.533 295.473 115.371 295.473Z" fill="#2E2E2E"/>
<path d="M141.509 281.491C141.345 281.491 141.187 281.426 141.07 281.31C140.954 281.193 140.889 281.036 140.889 280.871V268.838C140.889 268.722 140.921 268.608 140.982 268.509C141.044 268.41 141.132 268.331 141.236 268.28L169.012 254.634C169.107 254.587 169.212 254.566 169.317 254.571C169.422 254.577 169.524 254.609 169.614 254.665C169.703 254.72 169.777 254.798 169.828 254.89C169.879 254.983 169.905 255.086 169.905 255.192V266.58C169.904 266.693 169.873 266.803 169.814 266.9C169.755 266.996 169.67 267.074 169.57 267.126L141.794 281.405C141.708 281.456 141.61 281.486 141.509 281.491ZM142.129 269.222V279.854L168.665 266.208V256.197L142.129 269.222Z" fill="#2E2E2E"/>
<path d="M288.217 218.507C288.053 218.507 287.895 218.442 287.779 218.326C287.663 218.21 287.597 218.052 287.597 217.887V62.05C287.597 61.8855 287.663 61.7277 287.779 61.6114C287.895 61.495 288.053 61.4297 288.217 61.4297C288.382 61.4297 288.54 61.495 288.656 61.6114C288.772 61.7277 288.838 61.8855 288.838 62.05V217.887C288.838 218.052 288.772 218.21 288.656 218.326C288.54 218.442 288.382 218.507 288.217 218.507Z" fill="#2E2E2E"/>
<path d="M49.5212 220.741C49.4324 220.748 49.3432 220.736 49.2594 220.706C49.1757 220.675 49.0994 220.627 49.0359 220.565C48.9723 220.503 48.9229 220.427 48.8911 220.344C48.8592 220.261 48.8457 220.172 48.8513 220.083V187.978L10.6921 168.861V200.619C10.6921 200.783 10.6268 200.941 10.5105 201.058C10.3941 201.174 10.2364 201.239 10.0719 201.239C9.90736 201.239 9.7496 201.174 9.63327 201.058C9.51695 200.941 9.4516 200.783 9.4516 200.619V167.856C9.44636 167.744 9.47185 167.632 9.52533 167.533C9.57882 167.434 9.65827 167.351 9.75518 167.294C9.85208 167.236 9.96278 167.206 10.0754 167.207C10.188 167.208 10.2983 167.239 10.3944 167.298L49.8437 187.035C49.9481 187.086 50.0361 187.166 50.0975 187.264C50.1589 187.363 50.1913 187.477 50.1911 187.593V220.083C50.1967 220.172 50.1832 220.261 50.1513 220.344C50.1195 220.427 50.0701 220.503 50.0066 220.565C49.943 220.627 49.8667 220.675 49.783 220.706C49.6992 220.736 49.61 220.748 49.5212 220.741Z" fill="#2E2E2E"/>
<path d="M49.4344 220.743C49.3399 220.743 49.2465 220.722 49.1614 220.681L9.86098 201.18C9.71293 201.107 9.59969 200.979 9.54618 200.823C9.49267 200.667 9.50327 200.497 9.57566 200.348C9.64804 200.2 9.77627 200.087 9.93215 200.034C10.088 199.98 10.2588 199.991 10.4068 200.063L49.7197 219.577C49.8405 219.642 49.9363 219.746 49.9921 219.871C50.0478 219.996 50.0603 220.137 50.0277 220.27C49.9951 220.404 49.9191 220.522 49.8117 220.608C49.7044 220.693 49.5716 220.741 49.4344 220.743Z" fill="#2E2E2E"/>
<path d="M26.7946 209.489C26.6301 209.489 26.4724 209.424 26.3561 209.308C26.2397 209.191 26.1744 209.034 26.1744 208.869V176.218C26.1744 176.053 26.2397 175.896 26.3561 175.779C26.4724 175.663 26.6301 175.598 26.7946 175.598C26.9592 175.598 27.1169 175.663 27.2332 175.779C27.3496 175.896 27.4149 176.053 27.4149 176.218V208.919C27.4024 209.074 27.3316 209.22 27.2166 209.326C27.1016 209.431 26.9509 209.49 26.7946 209.489Z" fill="#2E2E2E"/>
<path d="M49.5212 288.576C49.4267 288.577 49.3333 288.555 49.2483 288.514L9.79895 268.777C9.69456 268.726 9.60664 268.647 9.54523 268.548C9.48381 268.449 9.45137 268.335 9.4516 268.219V232.777C9.4516 232.612 9.51695 232.454 9.63327 232.338C9.7496 232.222 9.90737 232.156 10.0719 232.156C10.2364 232.156 10.3941 232.222 10.5105 232.338C10.6268 232.454 10.6921 232.612 10.6921 232.777V267.834L48.8513 286.951V252.34C48.8513 252.175 48.9167 252.018 49.033 251.901C49.1493 251.785 49.3071 251.72 49.4716 251.72C49.6361 251.72 49.7939 251.785 49.9102 251.901C50.0265 252.018 50.0919 252.175 50.0919 252.34V288.018C50.0777 288.163 50.0127 288.299 49.9083 288.401C49.8039 288.503 49.6668 288.565 49.5212 288.576Z" fill="#2E2E2E"/>
<path d="M49.4344 252.896C49.3399 252.896 49.2465 252.875 49.1614 252.834L9.86098 233.32C9.78767 233.284 9.72214 233.234 9.66812 233.173C9.61411 233.112 9.57267 233.041 9.54618 232.964C9.51968 232.887 9.50865 232.805 9.51371 232.723C9.51876 232.642 9.53981 232.562 9.57566 232.489C9.6115 232.416 9.66142 232.35 9.72259 232.296C9.78376 232.242 9.85496 232.201 9.93214 232.174C10.0093 232.148 10.091 232.137 10.1724 232.142C10.2539 232.147 10.3335 232.168 10.4068 232.204L49.7197 251.718C49.8473 251.779 49.95 251.883 50.0105 252.011C50.0711 252.139 50.0859 252.284 50.0526 252.422C50.0192 252.56 49.9397 252.682 49.8272 252.768C49.7147 252.854 49.5761 252.9 49.4344 252.896Z" fill="#2E2E2E"/>
<path d="M26.7946 276.654C26.6301 276.654 26.4724 276.589 26.3561 276.473C26.2397 276.356 26.1744 276.199 26.1744 276.034V241.038C26.1744 240.874 26.2397 240.716 26.3561 240.6C26.4724 240.483 26.6301 240.418 26.7946 240.418C26.9592 240.418 27.1169 240.483 27.2332 240.6C27.3496 240.716 27.4149 240.874 27.4149 241.038V276.034C27.4149 276.199 27.3496 276.356 27.2332 276.473C27.1169 276.589 26.9592 276.654 26.7946 276.654Z" fill="#2E2E2E"/>
<path d="M52.4737 121.547H52.1884L50.0298 121.026L30.6029 115.009C24.9088 113.049 20.815 107.765 19.0162 100.123L12.8135 73.451C9.32753 58.5645 15.5427 37.9839 26.6579 27.5509L46.5687 8.79384C52.4861 3.2486 58.9741 1.13967 64.7923 2.88884L85.4102 9.19081C85.7151 9.29541 85.9674 9.51462 86.1135 9.802C86.2596 10.0894 86.2881 10.4224 86.193 10.7304C86.0978 11.0384 85.8865 11.2973 85.6037 11.4522C85.321 11.6071 84.9891 11.6459 84.6782 11.5603L64.0604 5.24588C59.0982 3.76963 53.5033 5.66766 48.2558 10.5926L28.3079 29.3497C17.7632 39.274 11.8706 58.7878 15.1829 72.8804L21.3856 99.5521C22.9735 106.338 26.5091 110.99 31.31 112.64L50.6129 118.594L52.697 119.091C52.9966 119.151 53.2633 119.32 53.4459 119.565C53.6286 119.811 53.7143 120.115 53.6866 120.419C53.6589 120.723 53.5198 121.007 53.296 121.215C53.0721 121.423 52.7793 121.541 52.4737 121.547Z" fill="#2E2E2E"/>
<path d="M54.8434 121.832C53.436 121.831 52.0362 121.627 50.6876 121.224C44.8198 119.45 40.5648 114.103 38.7039 106.188L32.5012 79.5167C29.0153 64.6302 35.2304 44.0619 46.3457 33.6166L66.2192 14.8471C72.1738 9.27706 78.6247 7.18053 84.5421 8.95451C90.4595 10.7285 94.6525 16.0752 96.5133 23.9899L102.716 50.6616C106.214 65.2629 100.247 85.4837 89.4422 96.0284C89.6109 98.9466 90.6429 101.749 92.4071 104.08C92.8827 104.714 93.2182 105.443 93.3915 106.217C93.5647 106.991 93.5717 107.793 93.412 108.57C93.2885 109.469 92.9828 110.333 92.5135 111.11C92.0442 111.886 91.4212 112.559 90.6828 113.086C87.1472 115.43 83.6613 116.076 80.3242 115.021C77.8335 114.153 75.6687 112.542 74.1215 110.406L68.9484 115.269C64.4452 119.599 59.5575 121.832 54.8434 121.832ZM80.3862 10.8277C76.3297 10.8277 72.025 12.825 67.9808 16.6583L47.9956 35.4153C37.451 45.3397 31.5708 64.8659 34.8706 78.9461L41.0734 105.618C42.7233 112.639 46.3705 117.341 51.3451 118.842C56.3197 120.343 62.0014 118.42 67.2117 113.52L73.4144 107.677C73.5463 107.553 73.7037 107.46 73.8755 107.403C74.0474 107.347 74.2295 107.328 74.4092 107.35C74.5888 107.371 74.7617 107.431 74.9156 107.526C75.0694 107.622 75.2007 107.749 75.3 107.9C76.6353 110.112 78.6824 111.805 81.1058 112.701C83.6861 113.52 86.4649 112.962 89.343 111.051C89.7956 110.714 90.1751 110.288 90.4587 109.8C90.7423 109.312 90.924 108.771 90.9929 108.211C91.0915 107.773 91.0984 107.321 91.0129 106.881C90.9275 106.441 90.7517 106.023 90.4967 105.655C88.3065 102.767 87.0746 99.2667 86.9735 95.6438C86.9591 95.47 86.9814 95.2951 87.0392 95.1305C87.0969 94.9659 87.1886 94.8153 87.3085 94.6886C97.8035 84.7642 103.659 65.2628 100.359 51.2695L94.1563 24.5978C92.5064 17.5763 88.8592 12.8746 83.8846 11.3736C82.7524 11.0174 81.5731 10.8334 80.3862 10.8277Z" fill="#2E2E2E"/>
<path d="M63.2669 93.5494C63.0504 93.5496 62.8344 93.5288 62.6218 93.4874C61.7707 93.2729 61.0166 92.7781 60.481 92.0827C59.9453 91.3873 59.6594 90.5318 59.6693 89.6541L58.5777 78.1543C58.5631 78.0019 58.5297 77.8519 58.4784 77.7077L51.4321 75.7476C50.8281 75.566 50.2817 75.2303 49.8467 74.7735C49.4117 74.3168 49.103 73.7547 48.951 73.1425C48.6573 71.9532 48.6445 70.7119 48.9136 69.5169C49.1828 68.3219 49.7265 67.2059 50.5017 66.2574L57.8706 57.5736C58.3937 56.9061 58.7087 56.0992 58.7761 55.2538L60.0167 42.6871C60.2896 39.9703 61.9395 37.5016 63.9368 36.8193C64.5476 36.6034 65.2089 36.5743 65.8363 36.7355C66.4638 36.8968 67.029 37.2412 67.46 37.7249L72.7943 43.4934L80.6966 37.8738C81.2758 37.4041 81.992 37.1356 82.7372 37.1087C83.4824 37.0819 84.2161 37.2981 84.8276 37.7249C86.4403 38.891 86.9737 41.4465 86.155 44.0517L82.3465 56.5564C82.1177 57.1898 82.0874 57.8778 82.2597 58.5288L85.9813 67.5476C86.3268 68.5569 86.4514 69.6286 86.3465 70.6903C86.2416 71.7519 85.9098 72.7786 85.3734 73.7007C85.0531 74.3963 84.5854 75.0139 84.0028 75.5108C83.4202 76.0078 82.7365 76.3722 81.9992 76.5788L73.9604 78.1667C73.6311 78.4207 73.3708 78.7534 73.2037 79.1343L67.46 90.4481C67.1178 91.3032 66.5443 92.0463 65.8037 92.594C65.0632 93.1418 64.1848 93.4726 63.2669 93.5494ZM65.0533 37.8862C64.8043 37.8886 64.5573 37.9305 64.3214 38.0102C62.7955 38.5313 61.4681 40.603 61.2448 42.8235L60.0167 55.3779C59.8915 56.4411 59.4606 57.4452 58.7761 58.2683L51.4197 66.9521C50.7622 67.7524 50.2999 68.6948 50.0695 69.7046C49.8391 70.7144 49.8469 71.764 50.0923 72.7703C50.1834 73.1794 50.3803 73.5574 50.6634 73.8665C50.9464 74.1757 51.3056 74.4051 51.705 74.5319L58.987 76.554L59.1731 76.6408C59.3553 76.8187 59.5006 77.0308 59.6006 77.265C59.7007 77.4992 59.7536 77.7508 59.7562 78.0054L60.8479 89.5177C60.8141 90.1424 60.995 90.7599 61.3606 91.2676C61.7261 91.7753 62.2544 92.1428 62.8575 92.3089C64.0981 92.5694 65.4379 91.6142 66.3435 89.927L72.0872 78.6133C72.2356 78.2509 72.4547 77.9218 72.7315 77.6449C73.0084 77.368 73.3376 77.149 73.6999 77.0006L81.7386 75.363C82.2874 75.1853 82.7922 74.8933 83.2199 74.5063C83.6475 74.1193 83.9883 73.646 84.2197 73.1177C84.6774 72.362 84.9684 71.5174 85.0732 70.6402C85.1781 69.763 85.0943 68.8736 84.8276 68.0314L81.106 59.0127C80.8049 58.0981 80.8049 57.1112 81.106 56.1966L84.9889 43.6795C85.6464 41.5706 85.2866 39.5733 84.1081 38.7173C83.7059 38.4414 83.2237 38.3063 82.7367 38.3332C82.2497 38.3602 81.7854 38.5476 81.4161 38.8662L73.3526 44.6099C73.2088 44.7326 73.0318 44.8099 72.8441 44.832C72.6564 44.854 72.4664 44.8199 72.2981 44.734L72.1864 44.6347L66.5544 38.5437C66.3641 38.3309 66.1308 38.1612 65.8698 38.0457C65.6088 37.9302 65.3263 37.8716 65.0409 37.8738L65.0533 37.8862Z" fill="#2E2E2E"/>
<path d="M85.4482 330.491L58.156 329.871C57.9702 329.866 57.7879 329.819 57.6225 329.734L1.17715 301.202C0.967927 301.102 0.790791 300.946 0.665814 300.751C0.540836 300.556 0.473014 300.329 0.470032 300.098L0.569276 135.266C0.569938 135.033 0.636672 134.804 0.761782 134.606C0.886893 134.409 1.06529 134.25 1.27639 134.15L36.7688 117.353L29.8713 115.194C24.6733 113.396 21.0385 108.16 19.0784 99.5635L12.8756 72.9042C9.38964 58.0176 15.5924 37.437 26.7202 27.004L46.5692 8.24696C52.4866 2.70173 58.9747 0.5928 64.793 2.34197L67.2741 3.08629C79.2455 6.62185 83.7859 7.94923 85.4234 8.81761C90.8199 10.8273 94.7524 16.0376 96.4892 23.456L102.692 50.1278C105.669 62.7937 103.449 77.1344 97.1963 87.3441L208.35 34.1247C208.649 34.004 208.982 34.004 209.281 34.1247L288.056 60.7965C288.303 60.8797 288.517 61.0382 288.668 61.2497C288.819 61.4612 288.9 61.7149 288.9 61.975V225.193C288.899 225.418 288.838 225.638 288.722 225.83C288.606 226.022 288.44 226.18 288.242 226.285L252.266 245.675L251.72 250.637C251.696 250.842 251.621 251.039 251.502 251.208C251.383 251.376 251.223 251.513 251.038 251.605L195.213 279.517C195.045 279.598 194.86 279.64 194.673 279.64C194.486 279.64 194.302 279.598 194.134 279.517L169.186 267.98L143.705 281.018L143.134 301.375C143.128 301.602 143.06 301.822 142.937 302.012C142.815 302.202 142.643 302.355 142.439 302.455L85.9941 330.367C85.824 330.449 85.6373 330.492 85.4482 330.491ZM58.4661 327.402L85.1753 328.01L140.653 300.557L141.249 280.212C141.255 279.99 141.32 279.774 141.438 279.587C141.556 279.399 141.722 279.247 141.918 279.145L168.59 265.499C168.76 265.416 168.947 265.372 169.136 265.372C169.326 265.372 169.512 265.416 169.682 265.499L194.568 277.036L249.252 249.744L249.797 244.782C249.82 244.582 249.89 244.391 250.002 244.225C250.115 244.058 250.266 243.922 250.442 243.826L286.419 224.486V62.8061L208.971 36.581L94.0453 91.6612C93.7996 91.7614 93.5283 91.7801 93.2711 91.7147C93.014 91.6492 92.7846 91.5031 92.6166 91.2976C92.4487 91.0922 92.351 90.8384 92.338 90.5733C92.325 90.3083 92.3972 90.0461 92.5442 89.8252C100.409 80.1365 103.536 64.4312 100.335 50.7604L94.1322 24.0887C92.5815 17.5014 89.1699 12.9238 84.6047 11.1622C84.4884 11.1168 84.3797 11.0541 84.2821 10.9762C82.657 10.2194 70.6112 6.70869 66.5918 5.46814L64.1107 4.71141C59.1484 3.23516 53.5535 5.13319 48.3059 10.0582L28.3082 28.8152C17.7634 38.7396 11.8708 58.2533 15.183 72.3459L21.3858 99.0052C23.1846 106.709 26.3481 111.411 30.5908 112.85L40.5152 115.939C40.7542 116.013 40.9651 116.157 41.1205 116.353C41.2758 116.549 41.3683 116.788 41.3857 117.037C41.4032 117.287 41.3448 117.536 41.2182 117.751C41.0916 117.967 40.9028 118.14 40.6765 118.246L3.05039 136.06L2.95115 299.328L58.4661 327.402Z" fill="#2E2E2E"/>
</svg>
