<svg width="197" height="331" viewBox="0 0 197 331" fill="none" xmlns="http://www.w3.org/2000/svg">
<path d="M98.3101 329.867C98.1456 329.867 97.9878 329.801 97.8715 329.685C97.7552 329.569 97.6898 329.411 97.6898 329.246V299.015C97.6905 298.907 97.7194 298.801 97.7738 298.707C97.8282 298.614 97.9062 298.536 97.9999 298.482L194.759 242.982C194.853 242.927 194.96 242.899 195.069 242.898C195.177 242.898 195.284 242.927 195.378 242.981C195.472 243.035 195.551 243.112 195.605 243.206C195.66 243.3 195.689 243.406 195.69 243.515V273.734C195.689 273.842 195.66 273.948 195.606 274.042C195.551 274.135 195.473 274.213 195.38 274.267L98.6202 329.78C98.5263 329.836 98.4193 329.865 98.3101 329.867ZM98.9303 299.375V328.18L194.449 273.374V244.582L98.9303 299.375Z" fill="#2E2E2E"/>
<path d="M98.31 329.867C98.2008 329.866 98.0938 329.836 97.9999 329.78L1.24042 274.268C1.14668 274.214 1.06873 274.136 1.01433 274.042C0.95992 273.949 0.930951 273.843 0.930298 273.734V243.503C0.930951 243.395 0.960086 243.288 1.01479 243.194C1.0695 243.101 1.14785 243.023 1.24204 242.969C1.33622 242.915 1.44292 242.887 1.55148 242.887C1.66004 242.887 1.76666 242.916 1.86068 242.97L98.6202 298.47C98.7139 298.524 98.7919 298.602 98.8463 298.695C98.9007 298.789 98.9296 298.895 98.9303 299.003V329.247C98.9303 329.412 98.8649 329.569 98.7486 329.686C98.6323 329.802 98.4745 329.867 98.31 329.867ZM2.1708 273.424L97.6898 328.23V299.376L2.1708 244.582V273.424Z" fill="#2E2E2E"/>
<path d="M98.3101 286.774C98.2009 286.772 98.0941 286.742 97.9999 286.687C97.9062 286.633 97.8282 286.555 97.7738 286.461C97.7194 286.368 97.6905 286.262 97.6898 286.153V146.894C97.6905 146.786 97.7194 146.68 97.7738 146.586C97.8282 146.492 97.9062 146.415 97.9999 146.361L172.319 103.712C172.413 103.658 172.519 103.629 172.628 103.629C172.736 103.629 172.843 103.657 172.937 103.711C173.032 103.765 173.11 103.843 173.165 103.937C173.219 104.03 173.248 104.137 173.249 104.245L173.311 244.423C173.311 244.534 173.282 244.644 173.225 244.74C173.168 244.836 173.086 244.915 172.989 244.968L98.5582 286.587C98.4922 286.669 98.4069 286.733 98.3101 286.774ZM98.9303 147.316V285.099L172.12 244.162L172.021 105.387L98.9303 147.316Z" fill="#2E2E2E"/>
<path d="M98.31 286.77C98.2008 286.769 98.0938 286.739 97.9999 286.683L23.5695 243.042C23.4758 242.988 23.3978 242.91 23.3434 242.817C23.289 242.723 23.2601 242.617 23.2594 242.509L23.371 104.304C23.3717 104.195 23.4008 104.089 23.4555 103.995C23.5102 103.901 23.5886 103.824 23.6828 103.77C23.777 103.716 23.8837 103.687 23.9922 103.688C24.1008 103.688 24.2074 103.716 24.3014 103.771L98.5954 146.345C98.6891 146.399 98.767 146.477 98.8214 146.57C98.8758 146.664 98.9048 146.77 98.9055 146.878V286.15C98.9056 286.31 98.8437 286.464 98.7327 286.58C98.6217 286.696 98.4702 286.764 98.31 286.77ZM24.4875 242.112L97.6774 285.021V147.25L24.5991 105.371L24.4875 242.112Z" fill="#2E2E2E"/>
<path d="M98.4465 134.97C98.282 134.97 98.1243 134.905 98.008 134.788C97.8916 134.672 97.8263 134.514 97.8263 134.35V108.051C97.8269 107.943 97.8559 107.837 97.9103 107.743C97.9647 107.649 98.0427 107.572 98.1364 107.518L150.523 77.423C150.617 77.3687 150.724 77.34 150.832 77.3398C150.941 77.3397 151.047 77.368 151.142 77.422C151.236 77.476 151.314 77.5538 151.369 77.6475C151.424 77.7413 151.453 77.8478 151.453 77.9564V104.243C151.453 104.351 151.424 104.457 151.369 104.551C151.315 104.644 151.237 104.722 151.143 104.776L98.7443 134.883C98.654 134.937 98.5515 134.967 98.4465 134.97ZM99.0668 108.436V133.246L150.262 103.871V79.0604L99.0668 108.436Z" fill="#2E2E2E"/>
<path d="M98.31 134.972C98.2008 134.971 98.0938 134.941 97.9999 134.885L45.4272 104.803C45.3317 104.747 45.2525 104.668 45.198 104.572C45.1435 104.476 45.1156 104.367 45.1171 104.257V77.9704C45.1092 77.8531 45.1349 77.736 45.191 77.6327C45.2471 77.5294 45.3315 77.4442 45.4342 77.387C45.5369 77.3298 45.6537 77.3029 45.7711 77.3096C45.8885 77.3162 46.0015 77.3561 46.0971 77.4246L98.645 107.519C98.7387 107.573 98.8167 107.651 98.8711 107.745C98.9255 107.838 98.9544 107.944 98.9551 108.053V134.351C98.9552 134.435 98.9383 134.518 98.9056 134.595C98.8729 134.672 98.825 134.741 98.7647 134.799C98.7045 134.857 98.6331 134.902 98.555 134.932C98.4769 134.961 98.3935 134.975 98.31 134.972ZM46.3328 103.959L97.7146 133.247V108.437L46.4072 79.0496L46.3328 103.959Z" fill="#2E2E2E"/>
<path d="M111.832 81.9659C111.555 81.9673 111.286 81.8762 111.067 81.707C110.848 81.5378 110.692 81.3003 110.623 81.0323C110.555 80.7642 110.578 80.481 110.689 80.2276C110.8 79.9742 110.993 79.7651 111.236 79.6337C111.323 79.6337 119.349 75.1927 124.41 72.2775C130.489 68.7421 131.804 60.6788 131.804 54.4763C131.804 36.9231 119.237 15.512 103.843 6.71678C96.3997 2.51146 89.5521 1.84159 84.404 4.8188C82.3696 6.05931 71.5399 12.1378 71.5399 12.1378L71.0189 12.4355C70.8777 12.5253 70.7198 12.5855 70.5548 12.6127C70.3897 12.6398 70.2208 12.6333 70.0583 12.5935C69.8958 12.5537 69.743 12.4814 69.6092 12.3811C69.4753 12.2807 69.3632 12.1543 69.2794 12.0094C69.1957 11.8646 69.1421 11.7043 69.122 11.5382C69.1018 11.3721 69.1154 11.2037 69.162 11.043C69.2087 10.8823 69.2873 10.7327 69.3932 10.6032C69.4991 10.4737 69.6302 10.367 69.7784 10.2894L70.2994 9.99171C70.2994 9.99171 81.129 3.85121 83.1635 2.67273C89.1055 -0.72626 96.8835 -0.081197 105.071 4.5707C121.16 13.7504 134.285 36.1292 134.285 54.4763C134.285 64.3011 131.308 71.1983 125.688 74.436C120.614 77.3636 112.551 81.7674 112.464 81.8791C112.265 81.9627 112.046 81.9927 111.832 81.9659Z" fill="#2E2E2E"/>
<path d="M103.967 84.0602C99.1726 83.9049 94.5025 82.4979 90.4205 79.9789C74.2939 70.7496 61.2438 48.2096 61.2438 29.7508C61.2438 20.3974 64.5063 13.3762 70.4359 9.97717C76.3655 6.57818 84.0815 7.27286 92.244 11.9372C108.371 21.1665 121.421 43.7065 121.421 62.1653C121.421 71.5187 118.158 78.5399 112.229 81.9389C109.712 83.3668 106.86 84.099 103.967 84.0602ZM78.7349 10.3245C76.2647 10.2916 73.8297 10.9122 71.6764 12.1232C66.5531 15.0632 63.7248 21.3154 63.7248 29.7384C63.7248 47.4156 76.2539 68.9756 91.6486 77.8205C95.3638 80.095 99.6013 81.3765 103.954 81.542C106.417 81.5782 108.845 80.9573 110.988 79.7432C116.124 76.8032 118.94 70.5511 118.94 62.128C118.94 44.4508 106.411 22.8908 91.0159 14.046C87.313 11.7642 83.0816 10.482 78.7349 10.3245Z" fill="#2E2E2E"/>
<path d="M34.2627 249.232C34.1535 249.231 34.0465 249.201 33.9525 249.146L23.5323 243.042C23.4386 242.988 23.3606 242.91 23.3062 242.817C23.2518 242.723 23.2228 242.617 23.2222 242.509L23.371 104.304C23.3717 104.195 23.4008 104.089 23.4555 103.995C23.5102 103.901 23.5886 103.824 23.6828 103.77C23.7769 103.716 23.8837 103.687 23.9922 103.688C24.1008 103.688 24.2074 103.716 24.3014 103.771L34.5604 109.675C34.6541 109.73 34.7321 109.807 34.7865 109.901C34.8409 109.994 34.8699 110.101 34.8705 110.209V248.612C34.8706 248.774 34.8069 248.93 34.6933 249.046C34.5796 249.162 34.425 249.229 34.2627 249.232ZM24.4627 242.149L33.6424 247.533V110.544L24.6115 105.371L24.4627 242.149Z" fill="#2E2E2E"/>
<path d="M44.6954 255.313C44.5861 255.312 44.4792 255.282 44.3852 255.226L33.9526 249.111C33.8588 249.057 33.7809 248.979 33.7265 248.885C33.6721 248.792 33.6431 248.686 33.6425 248.577L33.8037 110.261C33.7952 110.148 33.8176 110.035 33.8685 109.934C33.9195 109.833 33.9971 109.748 34.0928 109.688C34.1886 109.628 34.299 109.596 34.412 109.594C34.525 109.592 34.6364 109.621 34.7341 109.678L44.9683 115.62C45.062 115.674 45.14 115.752 45.1944 115.845C45.2488 115.939 45.2778 116.045 45.2784 116.153V254.693C45.2787 254.851 45.2185 255.004 45.1101 255.119C45.0017 255.234 44.8533 255.304 44.6954 255.313ZM34.883 248.23L44.0751 253.577V116.525L35.0442 111.328L34.883 248.23Z" fill="#2E2E2E"/>
<path d="M55.1405 261.404C55.0313 261.402 54.9245 261.373 54.8304 261.317L44.4101 255.202C44.3164 255.148 44.2384 255.07 44.184 254.976C44.1296 254.883 44.1006 254.776 44.1 254.668L44.2488 116.265C44.2495 116.156 44.2786 116.05 44.3333 115.956C44.388 115.862 44.4664 115.785 44.5606 115.731C44.6548 115.677 44.7615 115.648 44.87 115.648C44.9786 115.649 45.0852 115.677 45.1792 115.732L55.4506 121.624C55.5444 121.678 55.6223 121.756 55.6767 121.849C55.7311 121.943 55.7601 122.049 55.7607 122.157V260.784C55.7607 260.948 55.6954 261.106 55.5791 261.223C55.4627 261.339 55.305 261.404 55.1405 261.404ZM45.3405 254.308L54.5202 259.692V122.517L45.4893 117.332L45.3405 254.308Z" fill="#2E2E2E"/>
<path d="M65.5731 267.619C65.4639 267.617 65.3571 267.587 65.2629 267.532L54.8303 261.404C54.7365 261.35 54.6586 261.272 54.6042 261.179C54.5498 261.085 54.5208 260.979 54.5201 260.871L54.6814 122.269C54.6821 122.16 54.7112 122.054 54.7659 121.96C54.8206 121.866 54.899 121.789 54.9931 121.735C55.0873 121.681 55.194 121.652 55.3026 121.652C55.4112 121.653 55.5178 121.681 55.6118 121.735L65.8832 127.653C65.9769 127.707 66.0549 127.784 66.1093 127.878C66.1637 127.972 66.1927 128.078 66.1933 128.186V266.999C66.1933 267.163 66.128 267.321 66.0116 267.437C65.8953 267.554 65.7376 267.619 65.5731 267.619ZM55.7606 260.523L64.9528 265.919V128.546L55.9219 123.323L55.7606 260.523Z" fill="#2E2E2E"/>
<path d="M75.9809 273.624C75.8717 273.622 75.7647 273.592 75.6708 273.537L65.2506 267.409C65.1568 267.354 65.0789 267.277 65.0245 267.183C64.9701 267.09 64.9411 266.983 64.9404 266.875L65.0893 128.211C65.0832 128.096 65.1095 127.981 65.1651 127.88C65.2207 127.779 65.3034 127.695 65.4039 127.639C65.5045 127.582 65.6189 127.554 65.7343 127.559C65.8496 127.564 65.9613 127.601 66.0569 127.666L76.3283 133.57C76.422 133.624 76.5 133.702 76.5544 133.796C76.6088 133.889 76.6378 133.996 76.6384 134.104V273.04C76.6337 273.122 76.6129 273.202 76.5772 273.275C76.5416 273.349 76.4918 273.414 76.4307 273.469C76.3696 273.523 76.2985 273.564 76.2213 273.591C76.1441 273.617 76.0624 273.629 75.9809 273.624ZM66.1809 266.515L75.3607 271.912V134.488L66.3298 129.303L66.1809 266.515Z" fill="#2E2E2E"/>
<path d="M86.029 279.628C85.9198 279.627 85.8128 279.597 85.7189 279.541L75.2987 273.425C75.2049 273.371 75.127 273.294 75.0726 273.2C75.0181 273.106 74.9892 273 74.9885 272.892L75.1374 134.117C75.138 134.008 75.1672 133.901 75.2219 133.808C75.2766 133.714 75.3549 133.636 75.4491 133.582C75.5433 133.528 75.65 133.5 75.7586 133.5C75.8671 133.5 75.9737 133.529 76.0678 133.583L86.3392 139.451C86.4329 139.505 86.5109 139.583 86.5653 139.676C86.6197 139.77 86.6486 139.876 86.6493 139.984V278.921C86.6486 279.029 86.6197 279.135 86.5653 279.229C86.5109 279.322 86.4329 279.4 86.3392 279.454C86.2554 279.542 86.1474 279.602 86.029 279.628ZM76.229 272.52L85.4088 277.916V140.344L76.3779 135.134L76.229 272.52Z" fill="#2E2E2E"/>
<path d="M98.3101 286.772C98.1456 286.772 97.9878 286.707 97.8715 286.591C97.7552 286.474 97.6898 286.317 97.6898 286.152V146.893C97.6905 146.785 97.7194 146.679 97.7738 146.585C97.8282 146.491 97.9062 146.414 97.9999 146.36L109.475 139.81C109.569 139.755 109.675 139.727 109.784 139.727C109.892 139.726 109.999 139.755 110.093 139.809C110.187 139.863 110.266 139.94 110.321 140.034C110.375 140.128 110.404 140.235 110.405 140.343V279.416C110.404 279.524 110.375 279.631 110.321 279.724C110.267 279.818 110.189 279.896 110.095 279.95L98.5458 286.686C98.474 286.73 98.3937 286.76 98.3101 286.772ZM98.9303 147.315V285.073L109.239 279.056V141.36L98.9303 147.315Z" fill="#2E2E2E"/>
<path d="M98.4341 286.772C98.2696 286.772 98.1118 286.707 97.9955 286.591C97.8792 286.474 97.8138 286.317 97.8138 286.152L97.6898 146.893C97.6882 146.783 97.7162 146.674 97.7707 146.578C97.8252 146.482 97.9043 146.402 97.9999 146.347L109.475 139.81C109.569 139.755 109.675 139.727 109.784 139.727C109.892 139.726 109.999 139.755 110.093 139.809C110.187 139.863 110.266 139.94 110.32 140.034C110.375 140.128 110.404 140.235 110.405 140.343V279.627C110.404 279.735 110.375 279.842 110.321 279.935C110.267 280.029 110.189 280.106 110.095 280.161L98.707 286.648C98.6275 286.711 98.5338 286.754 98.4341 286.772ZM98.9303 147.265L99.0543 285.085L109.202 279.305V141.41L98.9303 147.265Z" fill="#2E2E2E"/>
<path d="M109.946 280.173C109.782 280.173 109.624 280.107 109.507 279.991C109.391 279.875 109.326 279.717 109.326 279.552L109.214 140.38C109.213 140.27 109.241 140.161 109.295 140.065C109.35 139.969 109.429 139.889 109.524 139.834L121.036 133.247C121.13 133.193 121.237 133.164 121.345 133.164C121.454 133.164 121.561 133.192 121.655 133.246C121.749 133.3 121.827 133.378 121.882 133.472C121.937 133.566 121.966 133.672 121.967 133.781V273.052C121.966 273.16 121.937 273.267 121.883 273.36C121.828 273.454 121.75 273.532 121.656 273.586L110.256 280.086C110.162 280.142 110.055 280.172 109.946 280.173ZM110.455 140.69L110.566 278.386L120.726 272.593V134.897L110.455 140.69Z" fill="#2E2E2E"/>
<path d="M121.458 273.648C121.293 273.648 121.136 273.582 121.019 273.466C120.903 273.35 120.838 273.192 120.838 273.027L120.726 133.719C120.727 133.61 120.756 133.504 120.81 133.411C120.864 133.317 120.942 133.239 121.036 133.185L132.536 126.61C132.63 126.556 132.736 126.528 132.845 126.527C132.953 126.527 133.06 126.556 133.154 126.61C133.248 126.664 133.327 126.741 133.381 126.835C133.436 126.929 133.465 127.035 133.466 127.144V266.54C133.465 266.648 133.436 266.754 133.382 266.848C133.328 266.941 133.25 267.019 133.156 267.073L121.768 273.561C121.674 273.617 121.567 273.647 121.458 273.648ZM121.966 134.078L122.078 271.961L132.225 266.18V128.211L121.966 134.078Z" fill="#2E2E2E"/>
<path d="M132.97 267.221C132.805 267.221 132.648 267.156 132.531 267.039C132.415 266.923 132.35 266.765 132.35 266.601L132.225 127.094C132.226 126.985 132.255 126.879 132.309 126.786C132.364 126.692 132.442 126.614 132.536 126.56L144.047 119.985C144.142 119.931 144.248 119.903 144.357 119.902C144.465 119.902 144.572 119.931 144.666 119.985C144.76 120.039 144.839 120.116 144.893 120.21C144.948 120.304 144.977 120.41 144.978 120.519V260.101C144.977 260.209 144.948 260.315 144.894 260.409C144.839 260.502 144.761 260.58 144.668 260.634L133.28 267.147C133.185 267.198 133.078 267.224 132.97 267.221ZM133.466 127.453L133.59 265.534L143.737 259.728V121.598L133.466 127.453Z" fill="#2E2E2E"/>
<path d="M144.469 260.883C144.305 260.883 144.147 260.818 144.031 260.702C143.914 260.585 143.849 260.428 143.849 260.263L143.737 120.483C143.738 120.375 143.767 120.268 143.821 120.175C143.876 120.081 143.954 120.004 144.048 119.949L155.572 113.4C155.666 113.345 155.772 113.317 155.881 113.316C155.99 113.316 156.096 113.345 156.19 113.399C156.285 113.453 156.363 113.53 156.418 113.624C156.472 113.718 156.502 113.824 156.502 113.933V253.738C156.502 253.846 156.473 253.952 156.418 254.046C156.364 254.14 156.286 254.217 156.192 254.271L144.792 260.784C144.696 260.846 144.584 260.881 144.469 260.883ZM144.978 120.843L145.09 259.184L155.249 253.378V114.975L144.978 120.843Z" fill="#2E2E2E"/>
<path d="M155.994 254.545C155.829 254.545 155.671 254.479 155.555 254.363C155.439 254.247 155.373 254.089 155.373 253.925L155.262 113.958C155.262 113.85 155.291 113.744 155.346 113.65C155.4 113.557 155.478 113.479 155.572 113.425L167.084 106.825C167.178 106.771 167.284 106.742 167.393 106.742C167.502 106.742 167.608 106.77 167.702 106.824C167.797 106.878 167.875 106.956 167.93 107.05C167.984 107.144 168.013 107.25 168.014 107.359V247.375C168.013 247.483 167.985 247.589 167.93 247.683C167.876 247.776 167.798 247.854 167.704 247.908L156.304 254.421C156.214 254.49 156.106 254.533 155.994 254.545ZM156.502 114.368L156.614 252.858L166.774 247.052V108.438L156.502 114.368Z" fill="#2E2E2E"/>
<path d="M92.6534 73.3694C92.1031 73.3543 91.5655 73.2007 91.0903 72.9228C90.1961 72.39 89.438 71.6565 88.8761 70.7802C88.3141 69.9039 87.9637 68.909 87.8526 67.874L87.7782 63.6066C84.3794 61.5008 81.2401 59.0026 78.4248 56.1636C77.6954 55.4486 77.254 54.4907 77.1843 53.4717L77.085 47.9266C77.051 47.5876 77.1221 47.2463 77.2885 46.949C77.4549 46.6517 77.7086 46.4127 78.0154 46.2643C78.4234 46.1429 78.8587 46.1479 79.2639 46.2785C79.6691 46.4092 80.0252 46.6594 80.2855 46.9962C81.6253 48.3608 83.0518 49.713 84.528 51.0155C86.364 52.6947 88.3723 54.175 90.5197 55.4317C91.3677 55.994 92.337 56.3469 93.348 56.4613C93.4845 56.4613 93.7326 56.4613 93.7078 55.655C93.6572 55.0428 93.4334 54.4577 93.0627 53.9679C92.3423 52.9963 91.5503 52.0799 90.6934 51.2264C89.4529 49.9859 87.927 48.4352 86.1159 46.6985C84.1638 44.8544 82.3788 42.841 80.7817 40.6821C79.5151 38.9865 78.4959 37.1195 77.7549 35.137C77.0906 33.2388 76.7468 31.2433 76.7377 29.2322C76.7377 25.8084 77.668 23.6003 79.6777 22.6947C81.6873 21.7892 83.7837 22.0373 86.9346 23.3026V20.896C86.9078 20.486 86.9914 20.0764 87.1769 19.7098C87.3624 19.3432 87.6429 19.0331 87.9891 18.8119C88.4284 18.5792 88.9215 18.467 89.4183 18.4866C89.9151 18.5062 90.3978 18.657 90.8174 18.9236C91.7443 19.5 92.5313 20.2755 93.1214 21.1939C93.7114 22.1122 94.0897 23.1503 94.2288 24.233V27.1854C97.1649 29.0744 99.8854 31.2791 102.342 33.76C102.833 34.1984 103.191 34.7651 103.378 35.3962C103.564 36.0274 103.57 36.6981 103.396 37.3327L101.684 41.2279C101.598 41.4387 101.462 41.6249 101.286 41.7699C101.111 41.915 100.903 42.0143 100.679 42.059C100.295 42.09 99.9091 42.031 99.5516 41.8867C99.1942 41.7424 98.8753 41.5169 98.6202 41.2279C96.2506 38.7469 93.5596 36.5941 90.6189 34.8269C89.895 34.2892 89.0362 33.9629 88.1379 33.8841C88.0139 33.8841 87.865 33.8841 87.8774 34.4671C87.8951 35.0278 88.0761 35.5711 88.3984 36.0302C89.0002 36.9135 89.6767 37.7435 90.4205 38.5112C91.3508 39.516 92.6534 40.7813 94.5141 42.518C97.523 45.2238 100.152 48.3242 102.329 51.735C103.892 54.3397 104.747 57.3073 104.81 60.3441C104.81 63.8051 103.892 66.1373 101.932 67.2909C99.9724 68.4446 97.7767 68.3206 94.6382 67.1545L94.7002 71C94.7383 71.4108 94.6637 71.8242 94.4844 72.1957C94.3052 72.5673 94.0281 72.883 93.683 73.1089C93.3666 73.2797 93.0129 73.3692 92.6534 73.3694ZM78.6108 47.3188H78.462C78.3949 47.3808 78.3448 47.4589 78.3165 47.5458C78.2883 47.6327 78.2828 47.7254 78.3007 47.815L78.462 53.3973C78.5176 54.0922 78.8214 54.7439 79.3179 55.2332C82.1431 58.0867 85.3048 60.586 88.7334 62.6762C88.823 62.7308 88.8974 62.8072 88.9494 62.8983C89.0015 62.9895 89.0296 63.0923 89.0311 63.1973L89.1055 67.8119C89.2113 68.6276 89.4993 69.4091 89.9481 70.0984C90.3969 70.7877 90.995 71.3672 91.6982 71.794C91.9087 71.9422 92.1534 72.0347 92.4093 72.0629C92.6653 72.0911 92.9242 72.0541 93.162 71.9552C93.3142 71.8366 93.4331 71.6805 93.507 71.5022C93.5809 71.324 93.6074 71.1296 93.5837 70.938L93.4845 66.2613C93.483 66.1587 93.5069 66.0573 93.5542 65.9662C93.6015 65.8751 93.6707 65.7971 93.7555 65.7393C93.8403 65.6816 93.9382 65.6457 94.0403 65.6351C94.1424 65.6244 94.2455 65.6393 94.3405 65.6783C97.541 67.0056 99.7863 67.1793 101.411 66.2241C103.036 65.2689 103.719 63.3585 103.681 60.3689C103.61 57.5431 102.802 54.785 101.337 52.3676C99.2199 49.0585 96.6662 46.0501 93.745 43.4236C91.8594 41.6249 90.5321 40.3347 89.6265 39.3175C88.8331 38.5132 88.1109 37.6415 87.4681 36.7125C87.0128 36.0595 86.7583 35.2876 86.7361 34.4919C86.6954 34.2825 86.6983 34.067 86.7447 33.8588C86.7911 33.6506 86.8799 33.4541 87.0057 33.2818C87.1314 33.1095 87.2914 32.965 87.4755 32.8573C87.6597 32.7496 87.8641 32.6811 88.0759 32.656C89.2345 32.6974 90.3556 33.0769 91.3012 33.7476C94.332 35.5663 97.1063 37.7816 99.5506 40.3347C99.6673 40.4784 99.8124 40.5966 99.9767 40.682C100.141 40.7673 100.321 40.818 100.506 40.8309C100.533 40.8247 100.558 40.8109 100.578 40.7911C100.597 40.7714 100.611 40.7465 100.617 40.7193L102.329 36.8241C102.387 36.424 102.346 36.016 102.209 35.6355C102.073 35.255 101.846 34.9135 101.548 34.6408C99.0752 32.1391 96.324 29.9289 93.348 28.0537C93.2584 27.9992 93.1841 27.9227 93.132 27.8316C93.0799 27.7405 93.0518 27.6376 93.0503 27.5327L92.9759 24.2454C92.8392 23.3834 92.5222 22.5599 92.0455 21.8289C91.5688 21.0978 90.9432 20.4756 90.2096 20.0028C89.9784 19.8467 89.7112 19.7523 89.4334 19.7284C89.1555 19.7045 88.8761 19.752 88.6217 19.8664C88.4628 19.9779 88.3364 20.1298 88.2557 20.3064C88.1751 20.4831 88.143 20.678 88.1627 20.8712V24.233C88.1652 24.3372 88.1413 24.4403 88.0934 24.5329C88.0454 24.6255 87.9749 24.7044 87.8884 24.7625C87.8019 24.8207 87.7021 24.856 87.5982 24.8654C87.4944 24.8747 87.3899 24.8577 87.2944 24.816C84.0194 23.377 81.8237 23.0793 80.1615 23.836C78.4992 24.5927 77.9037 26.317 77.9534 29.2198C77.9637 31.096 78.2865 32.9575 78.9086 34.7276C79.6108 36.5996 80.5756 38.3623 81.7741 39.9626C83.327 42.0592 85.0622 44.0144 86.9594 45.8054C88.783 47.5545 90.3708 49.1299 91.5741 50.3704C92.4745 51.2728 93.3039 52.2433 94.0551 53.2732C94.5616 53.96 94.8588 54.7785 94.9111 55.6302C94.9111 57.4289 93.8318 57.677 93.348 57.7018C92.1072 57.5576 90.9153 57.1334 89.8622 56.4613C87.6387 55.1591 85.5595 53.6247 83.6597 51.8838C82.1711 50.5565 80.7197 49.1919 79.3551 47.8026C79.171 47.5643 78.9064 47.4012 78.6108 47.3436V47.3188Z" fill="#2E2E2E"/>
<path d="M98.3101 330.487C98.0928 330.488 97.8789 330.432 97.6898 330.325L0.93031 274.813C0.741003 274.703 0.583938 274.546 0.475017 274.356C0.366096 274.167 0.309189 273.952 0.310057 273.733V243.502C0.306985 243.282 0.362846 243.064 0.471877 242.872C0.580907 242.68 0.73916 242.521 0.93031 242.411L21.7584 230.452L22.7508 104.293C22.7521 104.076 22.8101 103.864 22.9189 103.677C23.0277 103.489 23.1836 103.334 23.3711 103.226L43.8766 91.4658V78.4901C43.8767 78.2748 43.9327 78.0632 44.0393 77.8762C44.1459 77.6891 44.2993 77.533 44.4845 77.4232L71.5895 61.4083C65.0025 51.3602 61.2561 39.8979 61.2561 29.7754C61.2561 21.0918 64.1713 14.2815 69.4683 10.6716C69.5569 10.5753 69.6619 10.4955 69.7784 10.4359L70.3366 10.101L70.5723 9.9645C72.0857 9.09614 81.2779 3.8488 83.1511 2.74475C89.1055 -0.728668 96.8835 -0.0711996 105.071 4.61791C121.16 13.8473 134.285 36.3873 134.285 54.846C134.285 58.5675 134.173 62.8597 132.908 66.2711L151.515 76.9146C151.767 77.0591 151.96 77.2874 152.061 77.5597L152.582 78.9739C152.63 79.1052 152.655 79.2436 152.657 79.3832L152.731 91.0688L173.274 103.238C173.457 103.347 173.609 103.501 173.716 103.686C173.822 103.87 173.88 104.079 173.882 104.293L174.924 230.936L195.665 242.411C195.861 242.518 196.024 242.676 196.138 242.868C196.251 243.06 196.311 243.279 196.31 243.502V273.721C196.311 273.94 196.254 274.154 196.145 274.344C196.036 274.534 195.879 274.691 195.69 274.8L98.9303 330.313C98.7425 330.424 98.5285 330.484 98.3101 330.487ZM2.79107 273.014L98.3101 327.819L193.829 273.014V244.234L173.088 232.759C172.894 232.653 172.732 232.497 172.618 232.308C172.505 232.118 172.444 231.901 172.443 231.68L171.401 105.012L150.858 92.8427C150.675 92.734 150.522 92.5799 150.416 92.3952C150.309 92.2105 150.252 92.0015 150.25 91.7883L150.089 79.6189L149.803 78.825L130.687 67.8837C130.413 67.7269 130.209 67.4714 130.117 67.1695C130.025 66.8676 130.051 66.5418 130.191 66.2587C131.642 63.1822 131.804 58.8156 131.804 54.846C131.804 37.1812 119.237 15.6088 103.843 6.71437C96.3997 2.48424 89.5521 1.75234 84.4164 4.80399C82.4936 5.93285 72.8549 11.4407 71.7136 12.0858L71.6144 12.1478L71.4035 12.2718C71.3346 12.3487 71.2552 12.4155 71.1678 12.4703C66.4166 15.5468 63.7868 21.6625 63.7868 29.6885C63.7868 39.6994 67.6695 51.1245 74.4303 61.0237C74.5249 61.1639 74.5898 61.322 74.621 61.4882C74.6523 61.6544 74.6493 61.8252 74.6121 61.9902C74.5749 62.1552 74.5044 62.3108 74.4049 62.4475C74.3053 62.5842 74.1789 62.6992 74.0333 62.7853L46.3576 79.1972V92.1853C46.3585 92.4038 46.3016 92.6188 46.1927 92.8083C46.0838 92.9978 45.9267 93.1552 45.7374 93.2645L25.2194 105.024L24.2394 231.246C24.2381 231.462 24.1802 231.675 24.0714 231.862C23.9626 232.049 23.8067 232.205 23.6192 232.313L2.79107 244.222V273.001V273.014Z" fill="#2E2E2E"/>
</svg>
