<svg width="86" height="29" viewBox="0 0 86 29" fill="none" xmlns="http://www.w3.org/2000/svg">
<path d="M3.53005 5.7519V15.1146C5.29537 16.2482 6.92789 16.5843 8.82542 16.5843C13.0616 16.5843 15.709 13.687 15.709 9.69854C15.709 5.87788 13.3704 3.14899 9.26655 3.14899C6.92789 3.14899 4.76577 4.28239 3.53005 5.7519ZM0 0.419729H3.53005V2.6449C4.89817 1.13358 7.54576 0 10.2814 0C15.9296 0 19.4597 3.98845 19.4597 9.57256C19.4597 15.3244 15.3561 19.7328 9.13435 19.7328C7.01616 19.7328 4.94211 19.3131 3.53005 18.4315V27.7101H0V0.419729Z" fill="#2E2E2E"/>
<path d="M26.4185 8.18703H38.4651C38.2886 5.08021 36.1703 3.14898 32.7286 3.14898C29.1103 3.14898 26.8156 5.29017 26.4185 8.18703ZM40.7596 17.2558C38.8179 18.9352 35.9499 19.7328 33.3023 19.7328C26.8599 19.7328 22.6678 15.8284 22.6678 9.8665C22.6678 4.36636 26.3744 0 32.9051 0C38.0238 0 42.1276 3.44274 42.1276 8.64894C42.1276 9.57256 42.0393 10.3282 41.9069 10.9161H26.6392C26.948 14.4848 29.684 16.5842 33.567 16.5842C36.1262 16.5842 38.3768 15.7444 39.6565 14.6108L40.7596 17.2558Z" fill="#2E2E2E"/>
<path d="M54.6253 9.19698L59.0381 13.6892C60.3177 15.0749 62.3033 16.8381 64.0686 16.1663L64.0246 19.3152C61.068 20.1551 58.0674 18.2657 56.0815 15.7045L50.5659 9.44873L59.4353 0.421875H63.6715L54.6253 9.19698ZM46.2856 0.421875H49.8156V19.3152H46.2856V0.421875Z" fill="#2E2E2E"/>
<path d="M81.5857 14.107V4.36636C80.0412 3.52655 78.3645 3.14898 76.7318 3.14898C72.275 3.14898 69.3626 6.2558 69.3626 10.0343C69.3626 14.1489 72.0986 16.5842 76.0257 16.5842C78.3205 16.5842 80.4826 15.3245 81.5857 14.107ZM81.5857 17.3397C80.1738 18.6832 77.8791 19.7328 75.4522 19.7328C69.4511 19.7328 65.6121 15.8284 65.6121 9.8665C65.6121 4.36636 70.2894 0 76.776 0C79.9529 0 83.086 0.923623 85.1159 2.14119V19.3131H81.5857V17.3397Z" fill="#2E2E2E"/>
</svg>
